G04 #@! TF.FileFunction,Soldermask,Top*
%FSLAX46Y46*%
G04 Gerber Fmt 4.6, Leading zero omitted, Abs format (unit mm)*
G04 Created by KiCad (PCBNEW 4.0.7) date Wednesday, December 20, 2017 'PMt' 05:08:58 PM*
%MOMM*%
%LPD*%
G01*
G04 APERTURE LIST*
%ADD10C,0.100000*%
%ADD11R,1.200000X0.750000*%
%ADD12C,1.524000*%
%ADD13R,0.900000X0.800000*%
%ADD14R,1.200000X0.900000*%
%ADD15R,1.100000X0.500000*%
%ADD16R,1.700000X1.700000*%
%ADD17O,1.700000X1.700000*%
%ADD18C,3.500000*%
G04 APERTURE END LIST*
D10*
D11*
X116464000Y-108712000D03*
X118364000Y-108712000D03*
X130434000Y-105918000D03*
X132334000Y-105918000D03*
X130434000Y-109982000D03*
X132334000Y-109982000D03*
X130434000Y-94742000D03*
X132334000Y-94742000D03*
X116586000Y-94869000D03*
X118486000Y-94869000D03*
X109032000Y-115570000D03*
X110932000Y-115570000D03*
X108966000Y-117602000D03*
X110866000Y-117602000D03*
X116464000Y-111379000D03*
X118364000Y-111379000D03*
X122814000Y-118110000D03*
X124714000Y-118110000D03*
X130434000Y-107950000D03*
X132334000Y-107950000D03*
X116464000Y-99314000D03*
X118364000Y-99314000D03*
X116464000Y-101854000D03*
X118364000Y-101854000D03*
X116459000Y-96901000D03*
X118359000Y-96901000D03*
X99507000Y-115062000D03*
X101407000Y-115062000D03*
X104272000Y-115316000D03*
X106172000Y-115316000D03*
D12*
X109220000Y-128270000D03*
X119380000Y-128270000D03*
X109220000Y-85344000D03*
X119380000Y-85344000D03*
D13*
X103759000Y-100457000D03*
X103759000Y-102357000D03*
X105759000Y-101407000D03*
X108077000Y-100457000D03*
X108077000Y-102357000D03*
X110077000Y-101407000D03*
D14*
X130388000Y-114554000D03*
X132588000Y-114554000D03*
X99314000Y-112903000D03*
X101514000Y-112903000D03*
X108712000Y-110236000D03*
X110912000Y-110236000D03*
X104013000Y-107950000D03*
X106213000Y-107950000D03*
X98425000Y-100457000D03*
X100625000Y-100457000D03*
X99314000Y-109982000D03*
X101514000Y-109982000D03*
X104140000Y-109982000D03*
X106340000Y-109982000D03*
X116164000Y-114173000D03*
X118364000Y-114173000D03*
X116205000Y-117348000D03*
X118405000Y-117348000D03*
X104013000Y-113030000D03*
X106213000Y-113030000D03*
X108585000Y-113030000D03*
X110785000Y-113030000D03*
X98171000Y-95123000D03*
X100371000Y-95123000D03*
X130388000Y-112268000D03*
X132588000Y-112268000D03*
X108544000Y-105410000D03*
X110744000Y-105410000D03*
X99519380Y-117678200D03*
X101719380Y-117678200D03*
X104099000Y-117729000D03*
X106299000Y-117729000D03*
X108585000Y-107950000D03*
X110785000Y-107950000D03*
X102743000Y-95250000D03*
X104943000Y-95250000D03*
D15*
X121920000Y-107696000D03*
X121920000Y-108966000D03*
X121920000Y-110236000D03*
X121920000Y-111506000D03*
X121920000Y-112776000D03*
X121920000Y-114046000D03*
X121920000Y-115316000D03*
X125730000Y-115316000D03*
X125730000Y-114046000D03*
X125730000Y-112776000D03*
X125730000Y-111506000D03*
X125730000Y-110236000D03*
X125730000Y-108966000D03*
X125730000Y-107696000D03*
D16*
X94869000Y-94996000D03*
D17*
X94869000Y-97536000D03*
X94869000Y-100076000D03*
X94869000Y-102616000D03*
X94869000Y-105156000D03*
X94869000Y-107696000D03*
X94869000Y-110236000D03*
X94869000Y-112776000D03*
X94869000Y-115316000D03*
X94869000Y-117856000D03*
D14*
X130388000Y-100076000D03*
X132588000Y-100076000D03*
X130388000Y-102616000D03*
X132588000Y-102616000D03*
X116164000Y-104521000D03*
X118364000Y-104521000D03*
X130388000Y-97028000D03*
X132588000Y-97028000D03*
D15*
X121920000Y-95250000D03*
X121920000Y-96520000D03*
X121920000Y-97790000D03*
X121920000Y-99060000D03*
X121920000Y-100330000D03*
X121920000Y-101600000D03*
X121920000Y-102870000D03*
X121920000Y-104140000D03*
X125730000Y-104140000D03*
X125730000Y-102870000D03*
X125730000Y-101600000D03*
X125730000Y-100330000D03*
X125730000Y-99060000D03*
X125730000Y-97790000D03*
X125730000Y-96520000D03*
X125730000Y-95250000D03*
D18*
X93263720Y-85885020D03*
X132473700Y-85813900D03*
X93405960Y-129664460D03*
X132473700Y-129819400D03*
M02*
