G04 #@! TF.FileFunction,Copper,L2,Bot,Signal*
%FSLAX46Y46*%
G04 Gerber Fmt 4.6, Leading zero omitted, Abs format (unit mm)*
G04 Created by KiCad (PCBNEW 4.0.7) date Wednesday, December 20, 2017 'PMt' 05:08:58 PM*
%MOMM*%
%LPD*%
G01*
G04 APERTURE LIST*
%ADD10C,0.100000*%
%ADD11C,1.524000*%
%ADD12R,1.700000X1.700000*%
%ADD13O,1.700000X1.700000*%
%ADD14C,0.600000*%
%ADD15C,0.250000*%
%ADD16C,0.254000*%
G04 APERTURE END LIST*
D10*
D11*
X109220000Y-128270000D03*
X119380000Y-128270000D03*
X109220000Y-85344000D03*
X119380000Y-85344000D03*
D12*
X94869000Y-94996000D03*
D13*
X94869000Y-97536000D03*
X94869000Y-100076000D03*
X94869000Y-102616000D03*
X94869000Y-105156000D03*
X94869000Y-107696000D03*
X94869000Y-110236000D03*
X94869000Y-112776000D03*
X94869000Y-115316000D03*
X94869000Y-117856000D03*
D14*
X116464000Y-108712000D03*
X115628420Y-107175300D03*
X106954320Y-93626940D03*
X127386080Y-117284500D03*
X112171480Y-105359200D03*
X105966260Y-105582720D03*
X129316480Y-105671620D03*
X129273300Y-110538260D03*
X124584460Y-110761780D03*
X123065540Y-109466380D03*
X108587540Y-109194600D03*
X106339640Y-108900002D03*
X116730780Y-125958600D03*
X127579120Y-97350580D03*
X123162060Y-97020380D03*
X118132860Y-105890060D03*
X110835440Y-108900002D03*
X108122720Y-103642160D03*
X110497620Y-114368580D03*
X107528360Y-117635020D03*
X106212640Y-114241580D03*
X125552200Y-93451680D03*
X105816400Y-97114360D03*
X120068340Y-97792540D03*
X120124220Y-95252540D03*
X108587540Y-114368580D03*
X102946200Y-111188500D03*
X102870000Y-109982000D03*
X100584000Y-108712000D03*
X122712480Y-117167660D03*
X114823240Y-117419120D03*
X128066800Y-109303820D03*
X97221040Y-97106740D03*
X106636820Y-111188500D03*
X108630720Y-111526320D03*
X106636820Y-111188500D03*
X102362000Y-99314000D03*
X102362000Y-101346000D03*
X113553240Y-86969600D03*
X129289429Y-97515805D03*
X122775980Y-87685880D03*
X128407160Y-102430580D03*
X119852440Y-107993180D03*
X104134920Y-106743500D03*
X123736100Y-107325160D03*
X123736100Y-107325160D03*
X123736100Y-107325160D03*
X107038140Y-98661220D03*
X128066800Y-110672880D03*
X119494300Y-109646720D03*
X124206000Y-102362000D03*
X122936000Y-93980000D03*
D15*
X115628420Y-107175300D02*
X115628420Y-107876420D01*
X115628420Y-107876420D02*
X116464000Y-108712000D01*
X127386080Y-117284500D02*
X129941481Y-114729099D01*
X113853241Y-86344599D02*
X113253239Y-86344599D01*
X129941481Y-114729099D02*
X129941481Y-93289969D01*
X129941481Y-93289969D02*
X123171102Y-86519590D01*
X123171102Y-86519590D02*
X114028232Y-86519590D01*
X113253239Y-86344599D02*
X106954320Y-92643518D01*
X114028232Y-86519590D02*
X113853241Y-86344599D01*
X106954320Y-92643518D02*
X106954320Y-93626940D01*
X105966260Y-105582720D02*
X105966260Y-104873618D01*
X105966260Y-104873618D02*
X107822719Y-103017159D01*
X107822719Y-103017159D02*
X109829439Y-103017159D01*
X109829439Y-103017159D02*
X112171480Y-105359200D01*
X129273300Y-110538260D02*
X129273300Y-105714800D01*
X129273300Y-105714800D02*
X129316480Y-105671620D01*
X123065540Y-109466380D02*
X123289060Y-109466380D01*
X123289060Y-109466380D02*
X124584460Y-110761780D01*
X106339640Y-108900002D02*
X108292942Y-108900002D01*
X108292942Y-108900002D02*
X108587540Y-109194600D01*
X107528360Y-117635020D02*
X108407200Y-117635020D01*
X108407200Y-117635020D02*
X116730780Y-125958600D01*
X123162060Y-97020380D02*
X123162060Y-102243062D01*
X123162060Y-102243062D02*
X123905999Y-102987001D01*
X123905999Y-102987001D02*
X124506001Y-102987001D01*
X124506001Y-102987001D02*
X127579120Y-99913882D01*
X127579120Y-99913882D02*
X127579120Y-97350580D01*
X116436140Y-106354880D02*
X116900960Y-105890060D01*
X116900960Y-105890060D02*
X118132860Y-105890060D01*
X110835440Y-106354880D02*
X116436140Y-106354880D01*
X108122720Y-103642160D02*
X110835440Y-106354880D01*
X110835440Y-106354880D02*
X110835440Y-108900002D01*
X107528360Y-115557300D02*
X109308900Y-115557300D01*
X109308900Y-115557300D02*
X110497620Y-114368580D01*
X106212640Y-114241580D02*
X107528360Y-115557300D01*
X107528360Y-115557300D02*
X107528360Y-117635020D01*
X105816400Y-97114360D02*
X109575761Y-93354999D01*
X109575761Y-93354999D02*
X125455519Y-93354999D01*
X125455519Y-93354999D02*
X125552200Y-93451680D01*
X120124220Y-95252540D02*
X120124220Y-97736660D01*
X120124220Y-97736660D02*
X120068340Y-97792540D01*
X102946200Y-111188500D02*
X105407460Y-111188500D01*
X105407460Y-111188500D02*
X107835539Y-113616579D01*
X107835539Y-113616579D02*
X108587540Y-114368580D01*
X100584000Y-108712000D02*
X101854000Y-109982000D01*
X101854000Y-109982000D02*
X102870000Y-109982000D01*
X114823240Y-117419120D02*
X122461020Y-117419120D01*
X122461020Y-117419120D02*
X122712480Y-117167660D01*
X108630720Y-111526320D02*
X125844300Y-111526320D01*
X125844300Y-111526320D02*
X128066800Y-109303820D01*
X106636820Y-111188500D02*
X97221040Y-101772720D01*
X97221040Y-101772720D02*
X97221040Y-100706404D01*
X97221040Y-100706404D02*
X97221040Y-97106740D01*
X106636820Y-111188500D02*
X108292900Y-111188500D01*
X108292900Y-111188500D02*
X108630720Y-111526320D01*
X102362000Y-101346000D02*
X102362000Y-99314000D01*
X129289429Y-97515805D02*
X129289429Y-93274327D01*
X129289429Y-93274327D02*
X122984702Y-86969600D01*
X122984702Y-86969600D02*
X113553240Y-86969600D01*
X128407160Y-102430580D02*
X128407160Y-93317060D01*
X128407160Y-93317060D02*
X122775980Y-87685880D01*
X104134920Y-106743500D02*
X107753936Y-106743500D01*
X110535439Y-109525003D02*
X118320617Y-109525003D01*
X107753936Y-106743500D02*
X110535439Y-109525003D01*
X118320617Y-109525003D02*
X119852440Y-107993180D01*
X107038140Y-98661220D02*
X115072160Y-98661220D01*
X115072160Y-98661220D02*
X123736100Y-107325160D01*
X119494300Y-109646720D02*
X120462201Y-108678819D01*
X120462201Y-108678819D02*
X128366801Y-108678819D01*
X128366801Y-108678819D02*
X128691801Y-109003819D01*
X128691801Y-109003819D02*
X128691801Y-110047879D01*
X128691801Y-110047879D02*
X128066800Y-110672880D01*
X124197443Y-95258557D02*
X124197443Y-102353443D01*
X124197443Y-102353443D02*
X124206000Y-102362000D01*
X122936000Y-93980000D02*
X122936000Y-93997114D01*
X122936000Y-93997114D02*
X124197443Y-95258557D01*
D16*
G36*
X136362440Y-133184667D02*
X89520299Y-133098773D01*
X89532874Y-130136785D01*
X91020547Y-130136785D01*
X91382876Y-131013689D01*
X92053202Y-131685186D01*
X92929473Y-132049045D01*
X93878285Y-132049873D01*
X94755189Y-131687544D01*
X95426686Y-131017218D01*
X95727936Y-130291725D01*
X130088287Y-130291725D01*
X130450616Y-131168629D01*
X131120942Y-131840126D01*
X131997213Y-132203985D01*
X132946025Y-132204813D01*
X133822929Y-131842484D01*
X134494426Y-131172158D01*
X134858285Y-130295887D01*
X134859113Y-129347075D01*
X134496784Y-128470171D01*
X133826458Y-127798674D01*
X132950187Y-127434815D01*
X132001375Y-127433987D01*
X131124471Y-127796316D01*
X130452974Y-128466642D01*
X130089115Y-129342913D01*
X130088287Y-130291725D01*
X95727936Y-130291725D01*
X95790545Y-130140947D01*
X95791373Y-129192135D01*
X95524669Y-128546661D01*
X107822758Y-128546661D01*
X108034990Y-129060303D01*
X108427630Y-129453629D01*
X108940900Y-129666757D01*
X109496661Y-129667242D01*
X110010303Y-129455010D01*
X110215457Y-129250213D01*
X118579392Y-129250213D01*
X118648857Y-129492397D01*
X119172302Y-129679144D01*
X119727368Y-129651362D01*
X120111143Y-129492397D01*
X120180608Y-129250213D01*
X119380000Y-128449605D01*
X118579392Y-129250213D01*
X110215457Y-129250213D01*
X110403629Y-129062370D01*
X110616757Y-128549100D01*
X110617181Y-128062302D01*
X117970856Y-128062302D01*
X117998638Y-128617368D01*
X118157603Y-129001143D01*
X118399787Y-129070608D01*
X119200395Y-128270000D01*
X119559605Y-128270000D01*
X120360213Y-129070608D01*
X120602397Y-129001143D01*
X120789144Y-128477698D01*
X120761362Y-127922632D01*
X120602397Y-127538857D01*
X120360213Y-127469392D01*
X119559605Y-128270000D01*
X119200395Y-128270000D01*
X118399787Y-127469392D01*
X118157603Y-127538857D01*
X117970856Y-128062302D01*
X110617181Y-128062302D01*
X110617242Y-127993339D01*
X110405010Y-127479697D01*
X110215432Y-127289787D01*
X118579392Y-127289787D01*
X119380000Y-128090395D01*
X120180608Y-127289787D01*
X120111143Y-127047603D01*
X119587698Y-126860856D01*
X119032632Y-126888638D01*
X118648857Y-127047603D01*
X118579392Y-127289787D01*
X110215432Y-127289787D01*
X110012370Y-127086371D01*
X109499100Y-126873243D01*
X108943339Y-126872758D01*
X108429697Y-127084990D01*
X108036371Y-127477630D01*
X107823243Y-127990900D01*
X107822758Y-128546661D01*
X95524669Y-128546661D01*
X95429044Y-128315231D01*
X94758718Y-127643734D01*
X93882447Y-127279875D01*
X92933635Y-127279047D01*
X92056731Y-127641376D01*
X91385234Y-128311702D01*
X91021375Y-129187973D01*
X91020547Y-130136785D01*
X89532874Y-130136785D01*
X89671281Y-97536000D01*
X93354907Y-97536000D01*
X93467946Y-98104285D01*
X93789853Y-98586054D01*
X94119026Y-98806000D01*
X93789853Y-99025946D01*
X93467946Y-99507715D01*
X93354907Y-100076000D01*
X93467946Y-100644285D01*
X93789853Y-101126054D01*
X94119026Y-101346000D01*
X93789853Y-101565946D01*
X93467946Y-102047715D01*
X93354907Y-102616000D01*
X93467946Y-103184285D01*
X93789853Y-103666054D01*
X94119026Y-103886000D01*
X93789853Y-104105946D01*
X93467946Y-104587715D01*
X93354907Y-105156000D01*
X93467946Y-105724285D01*
X93789853Y-106206054D01*
X94119026Y-106426000D01*
X93789853Y-106645946D01*
X93467946Y-107127715D01*
X93354907Y-107696000D01*
X93467946Y-108264285D01*
X93789853Y-108746054D01*
X94119026Y-108966000D01*
X93789853Y-109185946D01*
X93467946Y-109667715D01*
X93354907Y-110236000D01*
X93467946Y-110804285D01*
X93789853Y-111286054D01*
X94119026Y-111506000D01*
X93789853Y-111725946D01*
X93467946Y-112207715D01*
X93354907Y-112776000D01*
X93467946Y-113344285D01*
X93789853Y-113826054D01*
X94119026Y-114046000D01*
X93789853Y-114265946D01*
X93467946Y-114747715D01*
X93354907Y-115316000D01*
X93467946Y-115884285D01*
X93789853Y-116366054D01*
X94119026Y-116586000D01*
X93789853Y-116805946D01*
X93467946Y-117287715D01*
X93354907Y-117856000D01*
X93467946Y-118424285D01*
X93789853Y-118906054D01*
X94271622Y-119227961D01*
X94839907Y-119341000D01*
X94898093Y-119341000D01*
X95466378Y-119227961D01*
X95948147Y-118906054D01*
X96270054Y-118424285D01*
X96383093Y-117856000D01*
X96333025Y-117604287D01*
X113888078Y-117604287D01*
X114030123Y-117948063D01*
X114292913Y-118211312D01*
X114636441Y-118353958D01*
X115008407Y-118354282D01*
X115352183Y-118212237D01*
X115385358Y-118179120D01*
X122461020Y-118179120D01*
X122751859Y-118121268D01*
X122779619Y-118102719D01*
X122897647Y-118102822D01*
X123241423Y-117960777D01*
X123504672Y-117697987D01*
X123647318Y-117354459D01*
X123647642Y-116982493D01*
X123505597Y-116638717D01*
X123242807Y-116375468D01*
X122899279Y-116232822D01*
X122527313Y-116232498D01*
X122183537Y-116374543D01*
X121920288Y-116637333D01*
X121911241Y-116659120D01*
X115385703Y-116659120D01*
X115353567Y-116626928D01*
X115010039Y-116484282D01*
X114638073Y-116483958D01*
X114294297Y-116626003D01*
X114031048Y-116888793D01*
X113888402Y-117232321D01*
X113888078Y-117604287D01*
X96333025Y-117604287D01*
X96270054Y-117287715D01*
X95948147Y-116805946D01*
X95618974Y-116586000D01*
X95948147Y-116366054D01*
X96270054Y-115884285D01*
X96383093Y-115316000D01*
X96270054Y-114747715D01*
X95948147Y-114265946D01*
X95618974Y-114046000D01*
X95948147Y-113826054D01*
X96270054Y-113344285D01*
X96383093Y-112776000D01*
X96270054Y-112207715D01*
X95948147Y-111725946D01*
X95618974Y-111506000D01*
X95948147Y-111286054D01*
X96270054Y-110804285D01*
X96383093Y-110236000D01*
X96270054Y-109667715D01*
X95948147Y-109185946D01*
X95618974Y-108966000D01*
X95948147Y-108746054D01*
X96270054Y-108264285D01*
X96383093Y-107696000D01*
X96270054Y-107127715D01*
X95948147Y-106645946D01*
X95618974Y-106426000D01*
X95948147Y-106206054D01*
X96270054Y-105724285D01*
X96383093Y-105156000D01*
X96270054Y-104587715D01*
X95948147Y-104105946D01*
X95618974Y-103886000D01*
X95948147Y-103666054D01*
X96270054Y-103184285D01*
X96383093Y-102616000D01*
X96270054Y-102047715D01*
X95948147Y-101565946D01*
X95618974Y-101346000D01*
X95948147Y-101126054D01*
X96270054Y-100644285D01*
X96383093Y-100076000D01*
X96270054Y-99507715D01*
X95948147Y-99025946D01*
X95618974Y-98806000D01*
X95948147Y-98586054D01*
X96270054Y-98104285D01*
X96383093Y-97536000D01*
X96379712Y-97519004D01*
X96427923Y-97635683D01*
X96461040Y-97668858D01*
X96461040Y-101772720D01*
X96518892Y-102063559D01*
X96683639Y-102310121D01*
X104802018Y-110428500D01*
X103697000Y-110428500D01*
X103804838Y-110168799D01*
X103805162Y-109796833D01*
X103663117Y-109453057D01*
X103400327Y-109189808D01*
X103056799Y-109047162D01*
X102684833Y-109046838D01*
X102341057Y-109188883D01*
X102307882Y-109222000D01*
X102168802Y-109222000D01*
X101519122Y-108572320D01*
X101519162Y-108526833D01*
X101377117Y-108183057D01*
X101114327Y-107919808D01*
X100770799Y-107777162D01*
X100398833Y-107776838D01*
X100055057Y-107918883D01*
X99791808Y-108181673D01*
X99649162Y-108525201D01*
X99648838Y-108897167D01*
X99790883Y-109240943D01*
X100053673Y-109504192D01*
X100397201Y-109646838D01*
X100444077Y-109646879D01*
X101316599Y-110519401D01*
X101563160Y-110684148D01*
X101854000Y-110742000D01*
X102119200Y-110742000D01*
X102011362Y-111001701D01*
X102011038Y-111373667D01*
X102153083Y-111717443D01*
X102415873Y-111980692D01*
X102759401Y-112123338D01*
X103131367Y-112123662D01*
X103475143Y-111981617D01*
X103508318Y-111948500D01*
X105092658Y-111948500D01*
X107652418Y-114508260D01*
X107652378Y-114553747D01*
X107794423Y-114897523D01*
X108057213Y-115160772D01*
X108400741Y-115303418D01*
X108772707Y-115303742D01*
X109116483Y-115161697D01*
X109379732Y-114898907D01*
X109522378Y-114555379D01*
X109522702Y-114183413D01*
X109380657Y-113839637D01*
X109117867Y-113576388D01*
X108774339Y-113433742D01*
X108727463Y-113433701D01*
X107242262Y-111948500D01*
X107793490Y-111948500D01*
X107837603Y-112055263D01*
X108100393Y-112318512D01*
X108443921Y-112461158D01*
X108815887Y-112461482D01*
X109159663Y-112319437D01*
X109192838Y-112286320D01*
X125844300Y-112286320D01*
X126135139Y-112228468D01*
X126381701Y-112063721D01*
X127264887Y-111180535D01*
X127273683Y-111201823D01*
X127536473Y-111465072D01*
X127880001Y-111607718D01*
X128251967Y-111608042D01*
X128595743Y-111465997D01*
X128737259Y-111324728D01*
X128742973Y-111330452D01*
X129086501Y-111473098D01*
X129181481Y-111473181D01*
X129181481Y-114414297D01*
X127246400Y-116349378D01*
X127200913Y-116349338D01*
X126857137Y-116491383D01*
X126593888Y-116754173D01*
X126451242Y-117097701D01*
X126450918Y-117469667D01*
X126592963Y-117813443D01*
X126855753Y-118076692D01*
X127199281Y-118219338D01*
X127571247Y-118219662D01*
X127915023Y-118077617D01*
X128178272Y-117814827D01*
X128320918Y-117471299D01*
X128320959Y-117424423D01*
X130478882Y-115266500D01*
X130643629Y-115019938D01*
X130701481Y-114729099D01*
X130701481Y-93289969D01*
X130643629Y-92999130D01*
X130478882Y-92752568D01*
X124012539Y-86286225D01*
X130088287Y-86286225D01*
X130450616Y-87163129D01*
X131120942Y-87834626D01*
X131997213Y-88198485D01*
X132946025Y-88199313D01*
X133822929Y-87836984D01*
X134494426Y-87166658D01*
X134858285Y-86290387D01*
X134859113Y-85341575D01*
X134496784Y-84464671D01*
X133826458Y-83793174D01*
X132950187Y-83429315D01*
X132001375Y-83428487D01*
X131124471Y-83790816D01*
X130452974Y-84461142D01*
X130089115Y-85337413D01*
X130088287Y-86286225D01*
X124012539Y-86286225D01*
X123708503Y-85982189D01*
X123461941Y-85817442D01*
X123171102Y-85759590D01*
X120720081Y-85759590D01*
X120776757Y-85623100D01*
X120777242Y-85067339D01*
X120565010Y-84553697D01*
X120172370Y-84160371D01*
X119659100Y-83947243D01*
X119103339Y-83946758D01*
X118589697Y-84158990D01*
X118196371Y-84551630D01*
X117983243Y-85064900D01*
X117982758Y-85620661D01*
X118040162Y-85759590D01*
X114319391Y-85759590D01*
X114144080Y-85642451D01*
X113853241Y-85584599D01*
X113253239Y-85584599D01*
X112962400Y-85642451D01*
X112715838Y-85807198D01*
X106416919Y-92106117D01*
X106252172Y-92352679D01*
X106194320Y-92643518D01*
X106194320Y-93064477D01*
X106162128Y-93096613D01*
X106019482Y-93440141D01*
X106019158Y-93812107D01*
X106161203Y-94155883D01*
X106423993Y-94419132D01*
X106767521Y-94561778D01*
X107139487Y-94562102D01*
X107402552Y-94453406D01*
X105676720Y-96179238D01*
X105631233Y-96179198D01*
X105287457Y-96321243D01*
X105024208Y-96584033D01*
X104881562Y-96927561D01*
X104881238Y-97299527D01*
X105023283Y-97643303D01*
X105286073Y-97906552D01*
X105629601Y-98049198D01*
X106001567Y-98049522D01*
X106345343Y-97907477D01*
X106608592Y-97644687D01*
X106751238Y-97301159D01*
X106751279Y-97254283D01*
X109890563Y-94114999D01*
X122000882Y-94114999D01*
X122000838Y-94165167D01*
X122142883Y-94508943D01*
X122405673Y-94772192D01*
X122749201Y-94914838D01*
X122778948Y-94914864D01*
X123437443Y-95573359D01*
X123437443Y-101808079D01*
X123413808Y-101831673D01*
X123271162Y-102175201D01*
X123270838Y-102547167D01*
X123412883Y-102890943D01*
X123675673Y-103154192D01*
X124019201Y-103296838D01*
X124391167Y-103297162D01*
X124734943Y-103155117D01*
X124998192Y-102892327D01*
X125140838Y-102548799D01*
X125141162Y-102176833D01*
X124999117Y-101833057D01*
X124957443Y-101791310D01*
X124957443Y-95258557D01*
X124899591Y-94967718D01*
X124734844Y-94721156D01*
X124128687Y-94114999D01*
X124893225Y-94114999D01*
X125021873Y-94243872D01*
X125365401Y-94386518D01*
X125737367Y-94386842D01*
X126081143Y-94244797D01*
X126344392Y-93982007D01*
X126487038Y-93638479D01*
X126487362Y-93266513D01*
X126345317Y-92922737D01*
X126082527Y-92659488D01*
X125738999Y-92516842D01*
X125367033Y-92516518D01*
X125177094Y-92594999D01*
X109575761Y-92594999D01*
X109284921Y-92652851D01*
X109038360Y-92817598D01*
X107780470Y-94075488D01*
X107889158Y-93813739D01*
X107889482Y-93441773D01*
X107747437Y-93097997D01*
X107714320Y-93064822D01*
X107714320Y-92958320D01*
X112966929Y-87705711D01*
X113022913Y-87761792D01*
X113366441Y-87904438D01*
X113738407Y-87904762D01*
X114082183Y-87762717D01*
X114115358Y-87729600D01*
X121840941Y-87729600D01*
X121840818Y-87871047D01*
X121982863Y-88214823D01*
X122245653Y-88478072D01*
X122589181Y-88620718D01*
X122636057Y-88620759D01*
X127647160Y-93631862D01*
X127647160Y-101868117D01*
X127614968Y-101900253D01*
X127472322Y-102243781D01*
X127471998Y-102615747D01*
X127614043Y-102959523D01*
X127876833Y-103222772D01*
X128220361Y-103365418D01*
X128592327Y-103365742D01*
X128936103Y-103223697D01*
X129181481Y-102978747D01*
X129181481Y-104736502D01*
X129131313Y-104736458D01*
X128787537Y-104878503D01*
X128524288Y-105141293D01*
X128381642Y-105484821D01*
X128381318Y-105856787D01*
X128513300Y-106176209D01*
X128513300Y-107947960D01*
X128366801Y-107918819D01*
X124464849Y-107918819D01*
X124528292Y-107855487D01*
X124670938Y-107511959D01*
X124671262Y-107139993D01*
X124529217Y-106796217D01*
X124266427Y-106532968D01*
X123922899Y-106390322D01*
X123876023Y-106390281D01*
X115609561Y-98123819D01*
X115390889Y-97977707D01*
X119133178Y-97977707D01*
X119275223Y-98321483D01*
X119538013Y-98584732D01*
X119881541Y-98727378D01*
X120253507Y-98727702D01*
X120597283Y-98585657D01*
X120860532Y-98322867D01*
X121003178Y-97979339D01*
X121003502Y-97607373D01*
X120884220Y-97318688D01*
X120884220Y-95815003D01*
X120916412Y-95782867D01*
X121059058Y-95439339D01*
X121059382Y-95067373D01*
X120917337Y-94723597D01*
X120654547Y-94460348D01*
X120311019Y-94317702D01*
X119939053Y-94317378D01*
X119595277Y-94459423D01*
X119332028Y-94722213D01*
X119189382Y-95065741D01*
X119189058Y-95437707D01*
X119331103Y-95781483D01*
X119364220Y-95814658D01*
X119364220Y-97174295D01*
X119276148Y-97262213D01*
X119133502Y-97605741D01*
X119133178Y-97977707D01*
X115390889Y-97977707D01*
X115362999Y-97959072D01*
X115072160Y-97901220D01*
X107600603Y-97901220D01*
X107568467Y-97869028D01*
X107224939Y-97726382D01*
X106852973Y-97726058D01*
X106509197Y-97868103D01*
X106245948Y-98130893D01*
X106103302Y-98474421D01*
X106102978Y-98846387D01*
X106245023Y-99190163D01*
X106507813Y-99453412D01*
X106851341Y-99596058D01*
X107223307Y-99596382D01*
X107567083Y-99454337D01*
X107600258Y-99421220D01*
X114757358Y-99421220D01*
X122800978Y-107464840D01*
X122800938Y-107510327D01*
X122942983Y-107854103D01*
X123007586Y-107918819D01*
X120787505Y-107918819D01*
X120787602Y-107808013D01*
X120645557Y-107464237D01*
X120382767Y-107200988D01*
X120039239Y-107058342D01*
X119667273Y-107058018D01*
X119323497Y-107200063D01*
X119060248Y-107462853D01*
X118917602Y-107806381D01*
X118917561Y-107853257D01*
X118005815Y-108765003D01*
X117398955Y-108765003D01*
X117399162Y-108526833D01*
X117257117Y-108183057D01*
X116994327Y-107919808D01*
X116650799Y-107777162D01*
X116603923Y-107777121D01*
X116453420Y-107626618D01*
X116563258Y-107362099D01*
X116563582Y-106990133D01*
X116421537Y-106646357D01*
X116158747Y-106383108D01*
X115815219Y-106240462D01*
X115443253Y-106240138D01*
X115099477Y-106382183D01*
X114836228Y-106644973D01*
X114693582Y-106988501D01*
X114693258Y-107360467D01*
X114835303Y-107704243D01*
X114868420Y-107737418D01*
X114868420Y-107876420D01*
X114926272Y-108167259D01*
X115091019Y-108413821D01*
X115442201Y-108765003D01*
X110850241Y-108765003D01*
X108291337Y-106206099D01*
X108044775Y-106041352D01*
X107753936Y-105983500D01*
X106812245Y-105983500D01*
X106901098Y-105769519D01*
X106901422Y-105397553D01*
X106789061Y-105125619D01*
X108137522Y-103777159D01*
X109514637Y-103777159D01*
X111236358Y-105498880D01*
X111236318Y-105544367D01*
X111378363Y-105888143D01*
X111641153Y-106151392D01*
X111984681Y-106294038D01*
X112356647Y-106294362D01*
X112700423Y-106152317D01*
X112963672Y-105889527D01*
X113106318Y-105545999D01*
X113106642Y-105174033D01*
X112964597Y-104830257D01*
X112701807Y-104567008D01*
X112358279Y-104424362D01*
X112311403Y-104424321D01*
X110366840Y-102479758D01*
X110120278Y-102315011D01*
X109829439Y-102257159D01*
X107822719Y-102257159D01*
X107531880Y-102315011D01*
X107531878Y-102315012D01*
X107531879Y-102315012D01*
X107285317Y-102479758D01*
X105428859Y-104336217D01*
X105264112Y-104582779D01*
X105206260Y-104873618D01*
X105206260Y-105020257D01*
X105174068Y-105052393D01*
X105031422Y-105395921D01*
X105031098Y-105767887D01*
X105120187Y-105983500D01*
X104697383Y-105983500D01*
X104665247Y-105951308D01*
X104321719Y-105808662D01*
X103949753Y-105808338D01*
X103605977Y-105950383D01*
X103342728Y-106213173D01*
X103200082Y-106556701D01*
X103199977Y-106676855D01*
X97981040Y-101457918D01*
X97981040Y-99499167D01*
X101426838Y-99499167D01*
X101568883Y-99842943D01*
X101602000Y-99876118D01*
X101602000Y-100783537D01*
X101569808Y-100815673D01*
X101427162Y-101159201D01*
X101426838Y-101531167D01*
X101568883Y-101874943D01*
X101831673Y-102138192D01*
X102175201Y-102280838D01*
X102547167Y-102281162D01*
X102890943Y-102139117D01*
X103154192Y-101876327D01*
X103296838Y-101532799D01*
X103297162Y-101160833D01*
X103155117Y-100817057D01*
X103122000Y-100783882D01*
X103122000Y-99876463D01*
X103154192Y-99844327D01*
X103296838Y-99500799D01*
X103297162Y-99128833D01*
X103155117Y-98785057D01*
X102892327Y-98521808D01*
X102548799Y-98379162D01*
X102176833Y-98378838D01*
X101833057Y-98520883D01*
X101569808Y-98783673D01*
X101427162Y-99127201D01*
X101426838Y-99499167D01*
X97981040Y-99499167D01*
X97981040Y-97669203D01*
X98013232Y-97637067D01*
X98155878Y-97293539D01*
X98156202Y-96921573D01*
X98014157Y-96577797D01*
X97751367Y-96314548D01*
X97407839Y-96171902D01*
X97035873Y-96171578D01*
X96692097Y-96313623D01*
X96428848Y-96576413D01*
X96286202Y-96919941D01*
X96286090Y-97048334D01*
X96270054Y-96967715D01*
X95948147Y-96485946D01*
X95906548Y-96458150D01*
X95954317Y-96449162D01*
X96170441Y-96310090D01*
X96315431Y-96097890D01*
X96366440Y-95846000D01*
X96366440Y-94146000D01*
X96322162Y-93910683D01*
X96183090Y-93694559D01*
X95970890Y-93549569D01*
X95719000Y-93498560D01*
X94019000Y-93498560D01*
X93783683Y-93542838D01*
X93567559Y-93681910D01*
X93422569Y-93894110D01*
X93371560Y-94146000D01*
X93371560Y-95846000D01*
X93415838Y-96081317D01*
X93554910Y-96297441D01*
X93767110Y-96442431D01*
X93834541Y-96456086D01*
X93789853Y-96485946D01*
X93467946Y-96967715D01*
X93354907Y-97536000D01*
X89671281Y-97536000D01*
X89718741Y-86357345D01*
X90878307Y-86357345D01*
X91240636Y-87234249D01*
X91910962Y-87905746D01*
X92787233Y-88269605D01*
X93736045Y-88270433D01*
X94612949Y-87908104D01*
X95284446Y-87237778D01*
X95648305Y-86361507D01*
X95648951Y-85620661D01*
X107822758Y-85620661D01*
X108034990Y-86134303D01*
X108427630Y-86527629D01*
X108940900Y-86740757D01*
X109496661Y-86741242D01*
X110010303Y-86529010D01*
X110403629Y-86136370D01*
X110616757Y-85623100D01*
X110617242Y-85067339D01*
X110405010Y-84553697D01*
X110012370Y-84160371D01*
X109499100Y-83947243D01*
X108943339Y-83946758D01*
X108429697Y-84158990D01*
X108036371Y-84551630D01*
X107823243Y-85064900D01*
X107822758Y-85620661D01*
X95648951Y-85620661D01*
X95649133Y-85412695D01*
X95286804Y-84535791D01*
X94616478Y-83864294D01*
X93740207Y-83500435D01*
X92791395Y-83499607D01*
X91914491Y-83861936D01*
X91242994Y-84532262D01*
X90879135Y-85408533D01*
X90878307Y-86357345D01*
X89718741Y-86357345D01*
X89734856Y-82561783D01*
X136362440Y-82347386D01*
X136362440Y-133184667D01*
X136362440Y-133184667D01*
G37*
X136362440Y-133184667D02*
X89520299Y-133098773D01*
X89532874Y-130136785D01*
X91020547Y-130136785D01*
X91382876Y-131013689D01*
X92053202Y-131685186D01*
X92929473Y-132049045D01*
X93878285Y-132049873D01*
X94755189Y-131687544D01*
X95426686Y-131017218D01*
X95727936Y-130291725D01*
X130088287Y-130291725D01*
X130450616Y-131168629D01*
X131120942Y-131840126D01*
X131997213Y-132203985D01*
X132946025Y-132204813D01*
X133822929Y-131842484D01*
X134494426Y-131172158D01*
X134858285Y-130295887D01*
X134859113Y-129347075D01*
X134496784Y-128470171D01*
X133826458Y-127798674D01*
X132950187Y-127434815D01*
X132001375Y-127433987D01*
X131124471Y-127796316D01*
X130452974Y-128466642D01*
X130089115Y-129342913D01*
X130088287Y-130291725D01*
X95727936Y-130291725D01*
X95790545Y-130140947D01*
X95791373Y-129192135D01*
X95524669Y-128546661D01*
X107822758Y-128546661D01*
X108034990Y-129060303D01*
X108427630Y-129453629D01*
X108940900Y-129666757D01*
X109496661Y-129667242D01*
X110010303Y-129455010D01*
X110215457Y-129250213D01*
X118579392Y-129250213D01*
X118648857Y-129492397D01*
X119172302Y-129679144D01*
X119727368Y-129651362D01*
X120111143Y-129492397D01*
X120180608Y-129250213D01*
X119380000Y-128449605D01*
X118579392Y-129250213D01*
X110215457Y-129250213D01*
X110403629Y-129062370D01*
X110616757Y-128549100D01*
X110617181Y-128062302D01*
X117970856Y-128062302D01*
X117998638Y-128617368D01*
X118157603Y-129001143D01*
X118399787Y-129070608D01*
X119200395Y-128270000D01*
X119559605Y-128270000D01*
X120360213Y-129070608D01*
X120602397Y-129001143D01*
X120789144Y-128477698D01*
X120761362Y-127922632D01*
X120602397Y-127538857D01*
X120360213Y-127469392D01*
X119559605Y-128270000D01*
X119200395Y-128270000D01*
X118399787Y-127469392D01*
X118157603Y-127538857D01*
X117970856Y-128062302D01*
X110617181Y-128062302D01*
X110617242Y-127993339D01*
X110405010Y-127479697D01*
X110215432Y-127289787D01*
X118579392Y-127289787D01*
X119380000Y-128090395D01*
X120180608Y-127289787D01*
X120111143Y-127047603D01*
X119587698Y-126860856D01*
X119032632Y-126888638D01*
X118648857Y-127047603D01*
X118579392Y-127289787D01*
X110215432Y-127289787D01*
X110012370Y-127086371D01*
X109499100Y-126873243D01*
X108943339Y-126872758D01*
X108429697Y-127084990D01*
X108036371Y-127477630D01*
X107823243Y-127990900D01*
X107822758Y-128546661D01*
X95524669Y-128546661D01*
X95429044Y-128315231D01*
X94758718Y-127643734D01*
X93882447Y-127279875D01*
X92933635Y-127279047D01*
X92056731Y-127641376D01*
X91385234Y-128311702D01*
X91021375Y-129187973D01*
X91020547Y-130136785D01*
X89532874Y-130136785D01*
X89671281Y-97536000D01*
X93354907Y-97536000D01*
X93467946Y-98104285D01*
X93789853Y-98586054D01*
X94119026Y-98806000D01*
X93789853Y-99025946D01*
X93467946Y-99507715D01*
X93354907Y-100076000D01*
X93467946Y-100644285D01*
X93789853Y-101126054D01*
X94119026Y-101346000D01*
X93789853Y-101565946D01*
X93467946Y-102047715D01*
X93354907Y-102616000D01*
X93467946Y-103184285D01*
X93789853Y-103666054D01*
X94119026Y-103886000D01*
X93789853Y-104105946D01*
X93467946Y-104587715D01*
X93354907Y-105156000D01*
X93467946Y-105724285D01*
X93789853Y-106206054D01*
X94119026Y-106426000D01*
X93789853Y-106645946D01*
X93467946Y-107127715D01*
X93354907Y-107696000D01*
X93467946Y-108264285D01*
X93789853Y-108746054D01*
X94119026Y-108966000D01*
X93789853Y-109185946D01*
X93467946Y-109667715D01*
X93354907Y-110236000D01*
X93467946Y-110804285D01*
X93789853Y-111286054D01*
X94119026Y-111506000D01*
X93789853Y-111725946D01*
X93467946Y-112207715D01*
X93354907Y-112776000D01*
X93467946Y-113344285D01*
X93789853Y-113826054D01*
X94119026Y-114046000D01*
X93789853Y-114265946D01*
X93467946Y-114747715D01*
X93354907Y-115316000D01*
X93467946Y-115884285D01*
X93789853Y-116366054D01*
X94119026Y-116586000D01*
X93789853Y-116805946D01*
X93467946Y-117287715D01*
X93354907Y-117856000D01*
X93467946Y-118424285D01*
X93789853Y-118906054D01*
X94271622Y-119227961D01*
X94839907Y-119341000D01*
X94898093Y-119341000D01*
X95466378Y-119227961D01*
X95948147Y-118906054D01*
X96270054Y-118424285D01*
X96383093Y-117856000D01*
X96333025Y-117604287D01*
X113888078Y-117604287D01*
X114030123Y-117948063D01*
X114292913Y-118211312D01*
X114636441Y-118353958D01*
X115008407Y-118354282D01*
X115352183Y-118212237D01*
X115385358Y-118179120D01*
X122461020Y-118179120D01*
X122751859Y-118121268D01*
X122779619Y-118102719D01*
X122897647Y-118102822D01*
X123241423Y-117960777D01*
X123504672Y-117697987D01*
X123647318Y-117354459D01*
X123647642Y-116982493D01*
X123505597Y-116638717D01*
X123242807Y-116375468D01*
X122899279Y-116232822D01*
X122527313Y-116232498D01*
X122183537Y-116374543D01*
X121920288Y-116637333D01*
X121911241Y-116659120D01*
X115385703Y-116659120D01*
X115353567Y-116626928D01*
X115010039Y-116484282D01*
X114638073Y-116483958D01*
X114294297Y-116626003D01*
X114031048Y-116888793D01*
X113888402Y-117232321D01*
X113888078Y-117604287D01*
X96333025Y-117604287D01*
X96270054Y-117287715D01*
X95948147Y-116805946D01*
X95618974Y-116586000D01*
X95948147Y-116366054D01*
X96270054Y-115884285D01*
X96383093Y-115316000D01*
X96270054Y-114747715D01*
X95948147Y-114265946D01*
X95618974Y-114046000D01*
X95948147Y-113826054D01*
X96270054Y-113344285D01*
X96383093Y-112776000D01*
X96270054Y-112207715D01*
X95948147Y-111725946D01*
X95618974Y-111506000D01*
X95948147Y-111286054D01*
X96270054Y-110804285D01*
X96383093Y-110236000D01*
X96270054Y-109667715D01*
X95948147Y-109185946D01*
X95618974Y-108966000D01*
X95948147Y-108746054D01*
X96270054Y-108264285D01*
X96383093Y-107696000D01*
X96270054Y-107127715D01*
X95948147Y-106645946D01*
X95618974Y-106426000D01*
X95948147Y-106206054D01*
X96270054Y-105724285D01*
X96383093Y-105156000D01*
X96270054Y-104587715D01*
X95948147Y-104105946D01*
X95618974Y-103886000D01*
X95948147Y-103666054D01*
X96270054Y-103184285D01*
X96383093Y-102616000D01*
X96270054Y-102047715D01*
X95948147Y-101565946D01*
X95618974Y-101346000D01*
X95948147Y-101126054D01*
X96270054Y-100644285D01*
X96383093Y-100076000D01*
X96270054Y-99507715D01*
X95948147Y-99025946D01*
X95618974Y-98806000D01*
X95948147Y-98586054D01*
X96270054Y-98104285D01*
X96383093Y-97536000D01*
X96379712Y-97519004D01*
X96427923Y-97635683D01*
X96461040Y-97668858D01*
X96461040Y-101772720D01*
X96518892Y-102063559D01*
X96683639Y-102310121D01*
X104802018Y-110428500D01*
X103697000Y-110428500D01*
X103804838Y-110168799D01*
X103805162Y-109796833D01*
X103663117Y-109453057D01*
X103400327Y-109189808D01*
X103056799Y-109047162D01*
X102684833Y-109046838D01*
X102341057Y-109188883D01*
X102307882Y-109222000D01*
X102168802Y-109222000D01*
X101519122Y-108572320D01*
X101519162Y-108526833D01*
X101377117Y-108183057D01*
X101114327Y-107919808D01*
X100770799Y-107777162D01*
X100398833Y-107776838D01*
X100055057Y-107918883D01*
X99791808Y-108181673D01*
X99649162Y-108525201D01*
X99648838Y-108897167D01*
X99790883Y-109240943D01*
X100053673Y-109504192D01*
X100397201Y-109646838D01*
X100444077Y-109646879D01*
X101316599Y-110519401D01*
X101563160Y-110684148D01*
X101854000Y-110742000D01*
X102119200Y-110742000D01*
X102011362Y-111001701D01*
X102011038Y-111373667D01*
X102153083Y-111717443D01*
X102415873Y-111980692D01*
X102759401Y-112123338D01*
X103131367Y-112123662D01*
X103475143Y-111981617D01*
X103508318Y-111948500D01*
X105092658Y-111948500D01*
X107652418Y-114508260D01*
X107652378Y-114553747D01*
X107794423Y-114897523D01*
X108057213Y-115160772D01*
X108400741Y-115303418D01*
X108772707Y-115303742D01*
X109116483Y-115161697D01*
X109379732Y-114898907D01*
X109522378Y-114555379D01*
X109522702Y-114183413D01*
X109380657Y-113839637D01*
X109117867Y-113576388D01*
X108774339Y-113433742D01*
X108727463Y-113433701D01*
X107242262Y-111948500D01*
X107793490Y-111948500D01*
X107837603Y-112055263D01*
X108100393Y-112318512D01*
X108443921Y-112461158D01*
X108815887Y-112461482D01*
X109159663Y-112319437D01*
X109192838Y-112286320D01*
X125844300Y-112286320D01*
X126135139Y-112228468D01*
X126381701Y-112063721D01*
X127264887Y-111180535D01*
X127273683Y-111201823D01*
X127536473Y-111465072D01*
X127880001Y-111607718D01*
X128251967Y-111608042D01*
X128595743Y-111465997D01*
X128737259Y-111324728D01*
X128742973Y-111330452D01*
X129086501Y-111473098D01*
X129181481Y-111473181D01*
X129181481Y-114414297D01*
X127246400Y-116349378D01*
X127200913Y-116349338D01*
X126857137Y-116491383D01*
X126593888Y-116754173D01*
X126451242Y-117097701D01*
X126450918Y-117469667D01*
X126592963Y-117813443D01*
X126855753Y-118076692D01*
X127199281Y-118219338D01*
X127571247Y-118219662D01*
X127915023Y-118077617D01*
X128178272Y-117814827D01*
X128320918Y-117471299D01*
X128320959Y-117424423D01*
X130478882Y-115266500D01*
X130643629Y-115019938D01*
X130701481Y-114729099D01*
X130701481Y-93289969D01*
X130643629Y-92999130D01*
X130478882Y-92752568D01*
X124012539Y-86286225D01*
X130088287Y-86286225D01*
X130450616Y-87163129D01*
X131120942Y-87834626D01*
X131997213Y-88198485D01*
X132946025Y-88199313D01*
X133822929Y-87836984D01*
X134494426Y-87166658D01*
X134858285Y-86290387D01*
X134859113Y-85341575D01*
X134496784Y-84464671D01*
X133826458Y-83793174D01*
X132950187Y-83429315D01*
X132001375Y-83428487D01*
X131124471Y-83790816D01*
X130452974Y-84461142D01*
X130089115Y-85337413D01*
X130088287Y-86286225D01*
X124012539Y-86286225D01*
X123708503Y-85982189D01*
X123461941Y-85817442D01*
X123171102Y-85759590D01*
X120720081Y-85759590D01*
X120776757Y-85623100D01*
X120777242Y-85067339D01*
X120565010Y-84553697D01*
X120172370Y-84160371D01*
X119659100Y-83947243D01*
X119103339Y-83946758D01*
X118589697Y-84158990D01*
X118196371Y-84551630D01*
X117983243Y-85064900D01*
X117982758Y-85620661D01*
X118040162Y-85759590D01*
X114319391Y-85759590D01*
X114144080Y-85642451D01*
X113853241Y-85584599D01*
X113253239Y-85584599D01*
X112962400Y-85642451D01*
X112715838Y-85807198D01*
X106416919Y-92106117D01*
X106252172Y-92352679D01*
X106194320Y-92643518D01*
X106194320Y-93064477D01*
X106162128Y-93096613D01*
X106019482Y-93440141D01*
X106019158Y-93812107D01*
X106161203Y-94155883D01*
X106423993Y-94419132D01*
X106767521Y-94561778D01*
X107139487Y-94562102D01*
X107402552Y-94453406D01*
X105676720Y-96179238D01*
X105631233Y-96179198D01*
X105287457Y-96321243D01*
X105024208Y-96584033D01*
X104881562Y-96927561D01*
X104881238Y-97299527D01*
X105023283Y-97643303D01*
X105286073Y-97906552D01*
X105629601Y-98049198D01*
X106001567Y-98049522D01*
X106345343Y-97907477D01*
X106608592Y-97644687D01*
X106751238Y-97301159D01*
X106751279Y-97254283D01*
X109890563Y-94114999D01*
X122000882Y-94114999D01*
X122000838Y-94165167D01*
X122142883Y-94508943D01*
X122405673Y-94772192D01*
X122749201Y-94914838D01*
X122778948Y-94914864D01*
X123437443Y-95573359D01*
X123437443Y-101808079D01*
X123413808Y-101831673D01*
X123271162Y-102175201D01*
X123270838Y-102547167D01*
X123412883Y-102890943D01*
X123675673Y-103154192D01*
X124019201Y-103296838D01*
X124391167Y-103297162D01*
X124734943Y-103155117D01*
X124998192Y-102892327D01*
X125140838Y-102548799D01*
X125141162Y-102176833D01*
X124999117Y-101833057D01*
X124957443Y-101791310D01*
X124957443Y-95258557D01*
X124899591Y-94967718D01*
X124734844Y-94721156D01*
X124128687Y-94114999D01*
X124893225Y-94114999D01*
X125021873Y-94243872D01*
X125365401Y-94386518D01*
X125737367Y-94386842D01*
X126081143Y-94244797D01*
X126344392Y-93982007D01*
X126487038Y-93638479D01*
X126487362Y-93266513D01*
X126345317Y-92922737D01*
X126082527Y-92659488D01*
X125738999Y-92516842D01*
X125367033Y-92516518D01*
X125177094Y-92594999D01*
X109575761Y-92594999D01*
X109284921Y-92652851D01*
X109038360Y-92817598D01*
X107780470Y-94075488D01*
X107889158Y-93813739D01*
X107889482Y-93441773D01*
X107747437Y-93097997D01*
X107714320Y-93064822D01*
X107714320Y-92958320D01*
X112966929Y-87705711D01*
X113022913Y-87761792D01*
X113366441Y-87904438D01*
X113738407Y-87904762D01*
X114082183Y-87762717D01*
X114115358Y-87729600D01*
X121840941Y-87729600D01*
X121840818Y-87871047D01*
X121982863Y-88214823D01*
X122245653Y-88478072D01*
X122589181Y-88620718D01*
X122636057Y-88620759D01*
X127647160Y-93631862D01*
X127647160Y-101868117D01*
X127614968Y-101900253D01*
X127472322Y-102243781D01*
X127471998Y-102615747D01*
X127614043Y-102959523D01*
X127876833Y-103222772D01*
X128220361Y-103365418D01*
X128592327Y-103365742D01*
X128936103Y-103223697D01*
X129181481Y-102978747D01*
X129181481Y-104736502D01*
X129131313Y-104736458D01*
X128787537Y-104878503D01*
X128524288Y-105141293D01*
X128381642Y-105484821D01*
X128381318Y-105856787D01*
X128513300Y-106176209D01*
X128513300Y-107947960D01*
X128366801Y-107918819D01*
X124464849Y-107918819D01*
X124528292Y-107855487D01*
X124670938Y-107511959D01*
X124671262Y-107139993D01*
X124529217Y-106796217D01*
X124266427Y-106532968D01*
X123922899Y-106390322D01*
X123876023Y-106390281D01*
X115609561Y-98123819D01*
X115390889Y-97977707D01*
X119133178Y-97977707D01*
X119275223Y-98321483D01*
X119538013Y-98584732D01*
X119881541Y-98727378D01*
X120253507Y-98727702D01*
X120597283Y-98585657D01*
X120860532Y-98322867D01*
X121003178Y-97979339D01*
X121003502Y-97607373D01*
X120884220Y-97318688D01*
X120884220Y-95815003D01*
X120916412Y-95782867D01*
X121059058Y-95439339D01*
X121059382Y-95067373D01*
X120917337Y-94723597D01*
X120654547Y-94460348D01*
X120311019Y-94317702D01*
X119939053Y-94317378D01*
X119595277Y-94459423D01*
X119332028Y-94722213D01*
X119189382Y-95065741D01*
X119189058Y-95437707D01*
X119331103Y-95781483D01*
X119364220Y-95814658D01*
X119364220Y-97174295D01*
X119276148Y-97262213D01*
X119133502Y-97605741D01*
X119133178Y-97977707D01*
X115390889Y-97977707D01*
X115362999Y-97959072D01*
X115072160Y-97901220D01*
X107600603Y-97901220D01*
X107568467Y-97869028D01*
X107224939Y-97726382D01*
X106852973Y-97726058D01*
X106509197Y-97868103D01*
X106245948Y-98130893D01*
X106103302Y-98474421D01*
X106102978Y-98846387D01*
X106245023Y-99190163D01*
X106507813Y-99453412D01*
X106851341Y-99596058D01*
X107223307Y-99596382D01*
X107567083Y-99454337D01*
X107600258Y-99421220D01*
X114757358Y-99421220D01*
X122800978Y-107464840D01*
X122800938Y-107510327D01*
X122942983Y-107854103D01*
X123007586Y-107918819D01*
X120787505Y-107918819D01*
X120787602Y-107808013D01*
X120645557Y-107464237D01*
X120382767Y-107200988D01*
X120039239Y-107058342D01*
X119667273Y-107058018D01*
X119323497Y-107200063D01*
X119060248Y-107462853D01*
X118917602Y-107806381D01*
X118917561Y-107853257D01*
X118005815Y-108765003D01*
X117398955Y-108765003D01*
X117399162Y-108526833D01*
X117257117Y-108183057D01*
X116994327Y-107919808D01*
X116650799Y-107777162D01*
X116603923Y-107777121D01*
X116453420Y-107626618D01*
X116563258Y-107362099D01*
X116563582Y-106990133D01*
X116421537Y-106646357D01*
X116158747Y-106383108D01*
X115815219Y-106240462D01*
X115443253Y-106240138D01*
X115099477Y-106382183D01*
X114836228Y-106644973D01*
X114693582Y-106988501D01*
X114693258Y-107360467D01*
X114835303Y-107704243D01*
X114868420Y-107737418D01*
X114868420Y-107876420D01*
X114926272Y-108167259D01*
X115091019Y-108413821D01*
X115442201Y-108765003D01*
X110850241Y-108765003D01*
X108291337Y-106206099D01*
X108044775Y-106041352D01*
X107753936Y-105983500D01*
X106812245Y-105983500D01*
X106901098Y-105769519D01*
X106901422Y-105397553D01*
X106789061Y-105125619D01*
X108137522Y-103777159D01*
X109514637Y-103777159D01*
X111236358Y-105498880D01*
X111236318Y-105544367D01*
X111378363Y-105888143D01*
X111641153Y-106151392D01*
X111984681Y-106294038D01*
X112356647Y-106294362D01*
X112700423Y-106152317D01*
X112963672Y-105889527D01*
X113106318Y-105545999D01*
X113106642Y-105174033D01*
X112964597Y-104830257D01*
X112701807Y-104567008D01*
X112358279Y-104424362D01*
X112311403Y-104424321D01*
X110366840Y-102479758D01*
X110120278Y-102315011D01*
X109829439Y-102257159D01*
X107822719Y-102257159D01*
X107531880Y-102315011D01*
X107531878Y-102315012D01*
X107531879Y-102315012D01*
X107285317Y-102479758D01*
X105428859Y-104336217D01*
X105264112Y-104582779D01*
X105206260Y-104873618D01*
X105206260Y-105020257D01*
X105174068Y-105052393D01*
X105031422Y-105395921D01*
X105031098Y-105767887D01*
X105120187Y-105983500D01*
X104697383Y-105983500D01*
X104665247Y-105951308D01*
X104321719Y-105808662D01*
X103949753Y-105808338D01*
X103605977Y-105950383D01*
X103342728Y-106213173D01*
X103200082Y-106556701D01*
X103199977Y-106676855D01*
X97981040Y-101457918D01*
X97981040Y-99499167D01*
X101426838Y-99499167D01*
X101568883Y-99842943D01*
X101602000Y-99876118D01*
X101602000Y-100783537D01*
X101569808Y-100815673D01*
X101427162Y-101159201D01*
X101426838Y-101531167D01*
X101568883Y-101874943D01*
X101831673Y-102138192D01*
X102175201Y-102280838D01*
X102547167Y-102281162D01*
X102890943Y-102139117D01*
X103154192Y-101876327D01*
X103296838Y-101532799D01*
X103297162Y-101160833D01*
X103155117Y-100817057D01*
X103122000Y-100783882D01*
X103122000Y-99876463D01*
X103154192Y-99844327D01*
X103296838Y-99500799D01*
X103297162Y-99128833D01*
X103155117Y-98785057D01*
X102892327Y-98521808D01*
X102548799Y-98379162D01*
X102176833Y-98378838D01*
X101833057Y-98520883D01*
X101569808Y-98783673D01*
X101427162Y-99127201D01*
X101426838Y-99499167D01*
X97981040Y-99499167D01*
X97981040Y-97669203D01*
X98013232Y-97637067D01*
X98155878Y-97293539D01*
X98156202Y-96921573D01*
X98014157Y-96577797D01*
X97751367Y-96314548D01*
X97407839Y-96171902D01*
X97035873Y-96171578D01*
X96692097Y-96313623D01*
X96428848Y-96576413D01*
X96286202Y-96919941D01*
X96286090Y-97048334D01*
X96270054Y-96967715D01*
X95948147Y-96485946D01*
X95906548Y-96458150D01*
X95954317Y-96449162D01*
X96170441Y-96310090D01*
X96315431Y-96097890D01*
X96366440Y-95846000D01*
X96366440Y-94146000D01*
X96322162Y-93910683D01*
X96183090Y-93694559D01*
X95970890Y-93549569D01*
X95719000Y-93498560D01*
X94019000Y-93498560D01*
X93783683Y-93542838D01*
X93567559Y-93681910D01*
X93422569Y-93894110D01*
X93371560Y-94146000D01*
X93371560Y-95846000D01*
X93415838Y-96081317D01*
X93554910Y-96297441D01*
X93767110Y-96442431D01*
X93834541Y-96456086D01*
X93789853Y-96485946D01*
X93467946Y-96967715D01*
X93354907Y-97536000D01*
X89671281Y-97536000D01*
X89718741Y-86357345D01*
X90878307Y-86357345D01*
X91240636Y-87234249D01*
X91910962Y-87905746D01*
X92787233Y-88269605D01*
X93736045Y-88270433D01*
X94612949Y-87908104D01*
X95284446Y-87237778D01*
X95648305Y-86361507D01*
X95648951Y-85620661D01*
X107822758Y-85620661D01*
X108034990Y-86134303D01*
X108427630Y-86527629D01*
X108940900Y-86740757D01*
X109496661Y-86741242D01*
X110010303Y-86529010D01*
X110403629Y-86136370D01*
X110616757Y-85623100D01*
X110617242Y-85067339D01*
X110405010Y-84553697D01*
X110012370Y-84160371D01*
X109499100Y-83947243D01*
X108943339Y-83946758D01*
X108429697Y-84158990D01*
X108036371Y-84551630D01*
X107823243Y-85064900D01*
X107822758Y-85620661D01*
X95648951Y-85620661D01*
X95649133Y-85412695D01*
X95286804Y-84535791D01*
X94616478Y-83864294D01*
X93740207Y-83500435D01*
X92791395Y-83499607D01*
X91914491Y-83861936D01*
X91242994Y-84532262D01*
X90879135Y-85408533D01*
X90878307Y-86357345D01*
X89718741Y-86357345D01*
X89734856Y-82561783D01*
X136362440Y-82347386D01*
X136362440Y-133184667D01*
M02*
