M48
;DRILL file {KiCad 4.0.7} date Wednesday, December 20, 2017 'PMt' 05:08:36 PM
;FORMAT={-:-/ absolute / inch / decimal}
FMAT,2
INCH,TZ
T1C0.016
T2C0.030
T3C0.039
%
G90
G05
M72
T1
X3.8276Y-3.8231
X3.96Y-4.28
X4.03Y-3.91
X4.03Y-3.99
X4.05Y-4.33
X4.053Y-4.3775
X4.0998Y-4.2025
X4.166Y-3.8234
X4.1719Y-4.1568
X4.1816Y-4.4977
X4.1866Y-4.2874
X4.1983Y-4.3775
X4.1983Y-4.3775
X4.2108Y-3.6861
X4.2141Y-3.8843
X4.2334Y-4.6313
X4.2568Y-4.0804
X4.2751Y-4.299
X4.2751Y-4.5027
X4.2768Y-4.3908
X4.3503Y-4.5027
X4.3636Y-4.2874
X4.4162Y-4.148
X4.4706Y-3.424
X4.5206Y-4.6228
X4.5523Y-4.2195
X4.5852Y-4.28
X4.5957Y-4.959
X4.6509Y-4.1689
X4.7045Y-4.3168
X4.7186Y-4.2517
X4.7271Y-3.8501
X4.7293Y-3.7501
X4.8312Y-4.6129
X4.8337Y-3.4522
X4.84Y-3.7
X4.8451Y-4.3097
X4.8489Y-3.8197
X4.8715Y-4.2254
X4.8715Y-4.2254
X4.8715Y-4.2254
X4.89Y-4.03
X4.9049Y-4.3607
X4.943Y-3.6792
X5.0152Y-4.6175
X5.0228Y-3.8327
X5.042Y-4.3033
X5.042Y-4.3572
X5.0554Y-4.0327
X5.0895Y-4.3519
X5.0901Y-3.8392
X5.0912Y-4.1603
T2
X4.3Y-3.36
X4.3Y-5.05
X4.7Y-3.36
X4.7Y-5.05
T3
X3.735Y-3.74
X3.735Y-3.84
X3.735Y-3.94
X3.735Y-4.04
X3.735Y-4.14
X3.735Y-4.24
X3.735Y-4.34
X3.735Y-4.44
X3.735Y-4.54
X3.735Y-4.64
T0
M30
