G04 #@! TF.FileFunction,Copper,L1,Top,Signal*
%FSLAX46Y46*%
G04 Gerber Fmt 4.6, Leading zero omitted, Abs format (unit mm)*
G04 Created by KiCad (PCBNEW 4.0.7) date Wednesday, December 20, 2017 'PMt' 05:08:58 PM*
%MOMM*%
%LPD*%
G01*
G04 APERTURE LIST*
%ADD10C,0.100000*%
%ADD11R,1.200000X0.750000*%
%ADD12C,1.524000*%
%ADD13R,0.900000X0.800000*%
%ADD14R,1.200000X0.900000*%
%ADD15R,1.100000X0.500000*%
%ADD16R,1.700000X1.700000*%
%ADD17O,1.700000X1.700000*%
%ADD18C,0.600000*%
%ADD19C,0.250000*%
G04 APERTURE END LIST*
D10*
D11*
X116464000Y-108712000D03*
X118364000Y-108712000D03*
X130434000Y-105918000D03*
X132334000Y-105918000D03*
X130434000Y-109982000D03*
X132334000Y-109982000D03*
X130434000Y-94742000D03*
X132334000Y-94742000D03*
X116586000Y-94869000D03*
X118486000Y-94869000D03*
X109032000Y-115570000D03*
X110932000Y-115570000D03*
X108966000Y-117602000D03*
X110866000Y-117602000D03*
X116464000Y-111379000D03*
X118364000Y-111379000D03*
X122814000Y-118110000D03*
X124714000Y-118110000D03*
X130434000Y-107950000D03*
X132334000Y-107950000D03*
X116464000Y-99314000D03*
X118364000Y-99314000D03*
X116464000Y-101854000D03*
X118364000Y-101854000D03*
X116459000Y-96901000D03*
X118359000Y-96901000D03*
X99507000Y-115062000D03*
X101407000Y-115062000D03*
X104272000Y-115316000D03*
X106172000Y-115316000D03*
D12*
X109220000Y-128270000D03*
X119380000Y-128270000D03*
X109220000Y-85344000D03*
X119380000Y-85344000D03*
D13*
X103759000Y-100457000D03*
X103759000Y-102357000D03*
X105759000Y-101407000D03*
X108077000Y-100457000D03*
X108077000Y-102357000D03*
X110077000Y-101407000D03*
D14*
X130388000Y-114554000D03*
X132588000Y-114554000D03*
X99314000Y-112903000D03*
X101514000Y-112903000D03*
X108712000Y-110236000D03*
X110912000Y-110236000D03*
X104013000Y-107950000D03*
X106213000Y-107950000D03*
X98425000Y-100457000D03*
X100625000Y-100457000D03*
X99314000Y-109982000D03*
X101514000Y-109982000D03*
X104140000Y-109982000D03*
X106340000Y-109982000D03*
X116164000Y-114173000D03*
X118364000Y-114173000D03*
X116205000Y-117348000D03*
X118405000Y-117348000D03*
X104013000Y-113030000D03*
X106213000Y-113030000D03*
X108585000Y-113030000D03*
X110785000Y-113030000D03*
X98171000Y-95123000D03*
X100371000Y-95123000D03*
X130388000Y-112268000D03*
X132588000Y-112268000D03*
X108544000Y-105410000D03*
X110744000Y-105410000D03*
X99519380Y-117678200D03*
X101719380Y-117678200D03*
X104099000Y-117729000D03*
X106299000Y-117729000D03*
X108585000Y-107950000D03*
X110785000Y-107950000D03*
X102743000Y-95250000D03*
X104943000Y-95250000D03*
D15*
X121920000Y-107696000D03*
X121920000Y-108966000D03*
X121920000Y-110236000D03*
X121920000Y-111506000D03*
X121920000Y-112776000D03*
X121920000Y-114046000D03*
X121920000Y-115316000D03*
X125730000Y-115316000D03*
X125730000Y-114046000D03*
X125730000Y-112776000D03*
X125730000Y-111506000D03*
X125730000Y-110236000D03*
X125730000Y-108966000D03*
X125730000Y-107696000D03*
D16*
X94869000Y-94996000D03*
D17*
X94869000Y-97536000D03*
X94869000Y-100076000D03*
X94869000Y-102616000D03*
X94869000Y-105156000D03*
X94869000Y-107696000D03*
X94869000Y-110236000D03*
X94869000Y-112776000D03*
X94869000Y-115316000D03*
X94869000Y-117856000D03*
D14*
X130388000Y-100076000D03*
X132588000Y-100076000D03*
X130388000Y-102616000D03*
X132588000Y-102616000D03*
X116164000Y-104521000D03*
X118364000Y-104521000D03*
X130388000Y-97028000D03*
X132588000Y-97028000D03*
D15*
X121920000Y-95250000D03*
X121920000Y-96520000D03*
X121920000Y-97790000D03*
X121920000Y-99060000D03*
X121920000Y-100330000D03*
X121920000Y-101600000D03*
X121920000Y-102870000D03*
X121920000Y-104140000D03*
X125730000Y-104140000D03*
X125730000Y-102870000D03*
X125730000Y-101600000D03*
X125730000Y-100330000D03*
X125730000Y-99060000D03*
X125730000Y-97790000D03*
X125730000Y-96520000D03*
X125730000Y-95250000D03*
D18*
X116464000Y-108712000D03*
X115628420Y-107175300D03*
X106954320Y-93626940D03*
X127386080Y-117284500D03*
X112171480Y-105359200D03*
X105966260Y-105582720D03*
X129316480Y-105671620D03*
X129273300Y-110538260D03*
X124584460Y-110761780D03*
X123065540Y-109466380D03*
X108587540Y-109194600D03*
X106339640Y-108900002D03*
X116730780Y-125958600D03*
X127579120Y-97350580D03*
X123162060Y-97020380D03*
X118132860Y-105890060D03*
X110835440Y-108900002D03*
X108122720Y-103642160D03*
X110497620Y-114368580D03*
X107528360Y-117635020D03*
X106212640Y-114241580D03*
X125552200Y-93451680D03*
X105816400Y-97114360D03*
X120068340Y-97792540D03*
X120124220Y-95252540D03*
X108587540Y-114368580D03*
X102946200Y-111188500D03*
X102870000Y-109982000D03*
X100584000Y-108712000D03*
X122712480Y-117167660D03*
X114823240Y-117419120D03*
X128066800Y-109303820D03*
X97221040Y-97106740D03*
X106636820Y-111188500D03*
X108630720Y-111526320D03*
X106636820Y-111188500D03*
X102362000Y-99314000D03*
X102362000Y-101346000D03*
X113553240Y-86969600D03*
X129289429Y-97515805D03*
X122775980Y-87685880D03*
X128407160Y-102430580D03*
X119852440Y-107993180D03*
X104134920Y-106743500D03*
X123736100Y-107325160D03*
X123736100Y-107325160D03*
X123736100Y-107325160D03*
X107038140Y-98661220D03*
X128066800Y-110672880D03*
X119494300Y-109646720D03*
X124206000Y-102362000D03*
X122936000Y-93980000D03*
D19*
X106954320Y-93626940D02*
X110852001Y-97524621D01*
X110852001Y-97524621D02*
X110852001Y-102398881D01*
X110852001Y-102398881D02*
X115628420Y-107175300D01*
X130388000Y-114554000D02*
X130238000Y-114554000D01*
X130238000Y-114554000D02*
X127507500Y-117284500D01*
X127507500Y-117284500D02*
X127386080Y-117284500D01*
X118364000Y-108712000D02*
X121666000Y-108712000D01*
X121666000Y-108712000D02*
X121920000Y-108966000D01*
X112171480Y-105359200D02*
X114824279Y-108011999D01*
X114824279Y-108011999D02*
X117438999Y-108011999D01*
X117438999Y-108011999D02*
X118139000Y-108712000D01*
X118139000Y-108712000D02*
X118364000Y-108712000D01*
X106213000Y-107950000D02*
X106213000Y-105829460D01*
X106213000Y-105829460D02*
X105966260Y-105582720D01*
X129316480Y-105671620D02*
X130187620Y-105671620D01*
X130187620Y-105671620D02*
X130434000Y-105918000D01*
X130434000Y-109982000D02*
X129829560Y-109982000D01*
X129829560Y-109982000D02*
X129273300Y-110538260D01*
X125730000Y-112776000D02*
X128265000Y-112776000D01*
X128265000Y-112776000D02*
X130434000Y-110607000D01*
X130434000Y-110607000D02*
X130434000Y-109982000D01*
X124584460Y-110761780D02*
X124584460Y-112430460D01*
X124584460Y-112430460D02*
X124930000Y-112776000D01*
X124930000Y-112776000D02*
X125730000Y-112776000D01*
X122618500Y-110634500D02*
X122220000Y-110236000D01*
X122795001Y-110811001D02*
X122618500Y-110634500D01*
X122618500Y-110634500D02*
X122618500Y-109913420D01*
X122618500Y-109913420D02*
X123065540Y-109466380D01*
X122795001Y-110985300D02*
X122795001Y-110811001D01*
X122795001Y-115826001D02*
X122795001Y-110985300D01*
X122795001Y-110985300D02*
X122795001Y-112200999D01*
X122795001Y-112200999D02*
X122220000Y-112776000D01*
X122220000Y-112776000D02*
X121920000Y-112776000D01*
X108712000Y-110236000D02*
X108862000Y-110236000D01*
X110005999Y-116901999D02*
X109940999Y-116966999D01*
X108862000Y-110236000D02*
X109859999Y-111233999D01*
X109859999Y-111233999D02*
X109859999Y-114655961D01*
X109859999Y-114655961D02*
X110005999Y-114801961D01*
X110005999Y-114801961D02*
X110005999Y-116901999D01*
X109940999Y-116966999D02*
X109940999Y-118237001D01*
X109940999Y-118237001D02*
X110005999Y-118302001D01*
X110005999Y-118302001D02*
X120319001Y-118302001D01*
X120319001Y-118302001D02*
X122795001Y-115826001D01*
X122220000Y-110236000D02*
X121920000Y-110236000D01*
X108587540Y-109194600D02*
X108587540Y-110111540D01*
X108587540Y-110111540D02*
X108712000Y-110236000D01*
X106340000Y-109982000D02*
X106340000Y-108900362D01*
X106340000Y-108900362D02*
X106339640Y-108900002D01*
X104013000Y-113030000D02*
X104013000Y-112159000D01*
X104013000Y-112159000D02*
X106190000Y-109982000D01*
X106190000Y-109982000D02*
X106340000Y-109982000D01*
X101514000Y-112903000D02*
X103886000Y-112903000D01*
X103886000Y-112903000D02*
X104013000Y-113030000D01*
X116730780Y-125958600D02*
X119042180Y-128270000D01*
X119042180Y-128270000D02*
X119380000Y-128270000D01*
X126560580Y-97350580D02*
X126530000Y-97320000D01*
X126530000Y-97320000D02*
X126530000Y-96520000D01*
X127579120Y-97350580D02*
X126560580Y-97350580D01*
X118359000Y-96901000D02*
X119209000Y-96901000D01*
X119209000Y-96901000D02*
X119403001Y-97095001D01*
X119403001Y-97095001D02*
X123087439Y-97095001D01*
X123087439Y-97095001D02*
X123162060Y-97020380D01*
X118364000Y-101854000D02*
X118139000Y-101854000D01*
X118139000Y-101854000D02*
X117438999Y-102554001D01*
X117438999Y-102554001D02*
X116247001Y-102554001D01*
X118364000Y-104521000D02*
X118214000Y-104521000D01*
X116247001Y-102554001D02*
X115603999Y-102554001D01*
X115603999Y-102554001D02*
X115538999Y-102489001D01*
X118214000Y-104521000D02*
X116247001Y-102554001D01*
X115538999Y-102489001D02*
X115538999Y-98678999D01*
X115538999Y-98678999D02*
X116616997Y-97601001D01*
X116616997Y-97601001D02*
X117433999Y-97601001D01*
X117433999Y-97601001D02*
X118134000Y-96901000D01*
X118134000Y-96901000D02*
X118359000Y-96901000D01*
X132334000Y-107950000D02*
X132334000Y-109982000D01*
X132334000Y-105918000D02*
X132334000Y-107950000D01*
X132588000Y-102616000D02*
X132588000Y-105664000D01*
X132588000Y-105664000D02*
X132334000Y-105918000D01*
X132588000Y-100076000D02*
X132588000Y-102616000D01*
X132588000Y-97028000D02*
X132588000Y-100076000D01*
X130700780Y-96150220D02*
X130598001Y-96252999D01*
X132109000Y-94742000D02*
X130700780Y-96150220D01*
X130700780Y-96150220D02*
X131560220Y-96150220D01*
X131560220Y-96150220D02*
X132438000Y-97028000D01*
X132438000Y-97028000D02*
X132588000Y-97028000D01*
X132334000Y-94742000D02*
X132109000Y-94742000D01*
X130598001Y-96252999D02*
X126797001Y-96252999D01*
X126797001Y-96252999D02*
X126530000Y-96520000D01*
X126530000Y-96520000D02*
X125730000Y-96520000D01*
X118132860Y-105890060D02*
X118132860Y-104752140D01*
X118132860Y-104752140D02*
X118364000Y-104521000D01*
X110785000Y-113030000D02*
X110785000Y-110363000D01*
X110785000Y-110363000D02*
X110912000Y-110236000D01*
X110835440Y-108900002D02*
X110835440Y-110159440D01*
X110835440Y-110159440D02*
X110912000Y-110236000D01*
X108077000Y-102357000D02*
X108077000Y-103596440D01*
X108077000Y-103596440D02*
X108122720Y-103642160D01*
X110497620Y-114368580D02*
X110497620Y-113317380D01*
X110497620Y-113317380D02*
X110785000Y-113030000D01*
X107528360Y-117635020D02*
X106392980Y-117635020D01*
X106392980Y-117635020D02*
X106299000Y-117729000D01*
X106172000Y-115316000D02*
X106172000Y-114282220D01*
X106172000Y-114282220D02*
X106212640Y-114241580D01*
X101407000Y-115062000D02*
X102257000Y-115062000D01*
X102257000Y-115062000D02*
X102703001Y-114615999D01*
X102703001Y-114615999D02*
X105246999Y-114615999D01*
X105246999Y-114615999D02*
X105947000Y-115316000D01*
X105947000Y-115316000D02*
X106172000Y-115316000D01*
X125730000Y-95250000D02*
X129926000Y-95250000D01*
X129926000Y-95250000D02*
X130434000Y-94742000D01*
X125552200Y-93451680D02*
X125552200Y-95072200D01*
X125552200Y-95072200D02*
X125730000Y-95250000D01*
X105759000Y-101407000D02*
X105759000Y-97171760D01*
X105759000Y-97171760D02*
X105816400Y-97114360D01*
X116586000Y-94869000D02*
X116586000Y-94244000D01*
X116586000Y-94244000D02*
X116661001Y-94168999D01*
X116661001Y-94168999D02*
X120038999Y-94168999D01*
X120038999Y-94168999D02*
X121120000Y-95250000D01*
X121120000Y-95250000D02*
X121920000Y-95250000D01*
X120068340Y-97792540D02*
X121917460Y-97792540D01*
X121917460Y-97792540D02*
X121920000Y-97790000D01*
X118486000Y-94869000D02*
X119740680Y-94869000D01*
X119740680Y-94869000D02*
X120124220Y-95252540D01*
X108966000Y-117602000D02*
X108966000Y-115636000D01*
X108966000Y-115636000D02*
X109032000Y-115570000D01*
X108587540Y-114368580D02*
X108587540Y-115125540D01*
X108587540Y-115125540D02*
X109032000Y-115570000D01*
X104140000Y-109982000D02*
X104140000Y-109994700D01*
X104140000Y-109994700D02*
X102946200Y-111188500D01*
X102870000Y-109982000D02*
X104140000Y-109982000D01*
X99314000Y-109982000D02*
X100584000Y-108712000D01*
X119289001Y-112339120D02*
X119289001Y-110743999D01*
X120995881Y-114046000D02*
X121920000Y-114046000D01*
X119289001Y-112547999D02*
X119289001Y-112339120D01*
X119289001Y-112339120D02*
X120995881Y-114046000D01*
X116464000Y-111379000D02*
X114498000Y-111379000D01*
X114498000Y-111379000D02*
X110932000Y-114945000D01*
X110932000Y-114945000D02*
X110932000Y-115570000D01*
X118364000Y-114173000D02*
X118364000Y-113473000D01*
X116689000Y-111379000D02*
X116464000Y-111379000D01*
X118364000Y-113473000D02*
X119289001Y-112547999D01*
X119289001Y-110743999D02*
X119224001Y-110678999D01*
X119224001Y-110678999D02*
X117389001Y-110678999D01*
X117389001Y-110678999D02*
X116689000Y-111379000D01*
X118405000Y-117348000D02*
X120388000Y-117348000D01*
X120388000Y-117348000D02*
X121920000Y-115816000D01*
X121920000Y-115816000D02*
X121920000Y-115316000D01*
X116164000Y-114873000D02*
X116164000Y-115257000D01*
X116164000Y-115257000D02*
X118255000Y-117348000D01*
X118255000Y-117348000D02*
X118405000Y-117348000D01*
X116164000Y-114173000D02*
X116314000Y-114173000D01*
X116314000Y-114173000D02*
X118364000Y-112123000D01*
X118364000Y-112123000D02*
X118364000Y-112004000D01*
X118364000Y-112004000D02*
X118364000Y-111379000D01*
X110866000Y-117602000D02*
X113435000Y-117602000D01*
X113435000Y-117602000D02*
X116164000Y-114873000D01*
X116164000Y-114873000D02*
X116164000Y-114173000D01*
X122712480Y-117167660D02*
X122712480Y-118008480D01*
X122712480Y-118008480D02*
X122814000Y-118110000D01*
X116205000Y-117348000D02*
X114894360Y-117348000D01*
X114894360Y-117348000D02*
X114823240Y-117419120D01*
X125730000Y-114046000D02*
X126030000Y-114046000D01*
X126030000Y-114046000D02*
X126605001Y-114621001D01*
X126605001Y-114621001D02*
X126605001Y-116443999D01*
X126605001Y-116443999D02*
X124939000Y-118110000D01*
X124939000Y-118110000D02*
X124714000Y-118110000D01*
X125730000Y-114046000D02*
X129338008Y-114046000D01*
X129338008Y-114046000D02*
X130341007Y-113043001D01*
X131662999Y-113043001D02*
X132438000Y-112268000D01*
X132438000Y-112268000D02*
X132588000Y-112268000D01*
X130341007Y-113043001D02*
X131662999Y-113043001D01*
X128066800Y-109303820D02*
X129705180Y-109303820D01*
X129705180Y-109303820D02*
X130434000Y-108575000D01*
X130434000Y-108575000D02*
X130434000Y-107950000D01*
X128066800Y-109303820D02*
X126067820Y-109303820D01*
X126067820Y-109303820D02*
X125730000Y-108966000D01*
X97221040Y-97106740D02*
X97221040Y-96072960D01*
X97221040Y-96072960D02*
X98171000Y-95123000D01*
X108630720Y-111526320D02*
X108630720Y-112984280D01*
X108630720Y-112984280D02*
X108585000Y-113030000D01*
X106213000Y-113030000D02*
X106213000Y-111612320D01*
X106213000Y-111612320D02*
X106636820Y-111188500D01*
X116464000Y-99314000D02*
X116689000Y-99314000D01*
X116689000Y-99314000D02*
X117443000Y-98560000D01*
X117443000Y-98560000D02*
X121120000Y-98560000D01*
X121620000Y-99060000D02*
X121920000Y-99060000D01*
X121120000Y-98560000D02*
X121620000Y-99060000D01*
X118364000Y-99314000D02*
X120904000Y-99314000D01*
X120904000Y-99314000D02*
X121120000Y-99530000D01*
X121120000Y-99530000D02*
X121120000Y-99830000D01*
X121120000Y-99830000D02*
X121620000Y-100330000D01*
X121620000Y-100330000D02*
X121920000Y-100330000D01*
X116464000Y-101854000D02*
X116464000Y-101229000D01*
X116464000Y-101229000D02*
X116539001Y-101153999D01*
X121120000Y-101600000D02*
X121920000Y-101600000D01*
X116539001Y-101153999D02*
X120673999Y-101153999D01*
X120673999Y-101153999D02*
X121120000Y-101600000D01*
X116459000Y-96901000D02*
X116459000Y-96276000D01*
X116534001Y-96200999D02*
X120800999Y-96200999D01*
X116459000Y-96276000D02*
X116534001Y-96200999D01*
X120800999Y-96200999D02*
X121120000Y-96520000D01*
X121120000Y-96520000D02*
X121920000Y-96520000D01*
X102362000Y-99314000D02*
X102362000Y-95631000D01*
X102362000Y-95631000D02*
X102743000Y-95250000D01*
X103759000Y-102357000D02*
X103373000Y-102357000D01*
X103373000Y-102357000D02*
X102362000Y-101346000D01*
X97790000Y-102362000D02*
X97795000Y-102357000D01*
X97795000Y-102357000D02*
X103759000Y-102357000D01*
X97790000Y-110679000D02*
X97790000Y-102362000D01*
X99314000Y-112903000D02*
X99314000Y-112203000D01*
X99314000Y-112203000D02*
X97790000Y-110679000D01*
X99507000Y-115062000D02*
X99507000Y-115687000D01*
X99582001Y-115762001D02*
X102975999Y-115762001D01*
X99507000Y-115687000D02*
X99582001Y-115762001D01*
X102975999Y-115762001D02*
X103422000Y-115316000D01*
X103422000Y-115316000D02*
X104272000Y-115316000D01*
X99507000Y-115062000D02*
X99507000Y-113096000D01*
X99507000Y-113096000D02*
X99314000Y-112903000D01*
X97663000Y-115062000D02*
X99507000Y-115062000D01*
X94869000Y-117856000D02*
X97663000Y-115062000D01*
X109220000Y-128270000D02*
X118158260Y-119331740D01*
X127660260Y-119331740D02*
X132438000Y-114554000D01*
X118158260Y-119331740D02*
X127660260Y-119331740D01*
X132438000Y-114554000D02*
X132588000Y-114554000D01*
X113553240Y-86969600D02*
X111927640Y-85344000D01*
X111927640Y-85344000D02*
X109220000Y-85344000D01*
X125730000Y-97790000D02*
X126030000Y-97790000D01*
X126030000Y-97790000D02*
X126530000Y-98290000D01*
X126530000Y-98290000D02*
X128515234Y-98290000D01*
X128515234Y-98290000D02*
X129289429Y-97515805D01*
X122775980Y-87685880D02*
X120434100Y-85344000D01*
X120434100Y-85344000D02*
X119380000Y-85344000D01*
X121920000Y-102870000D02*
X122720000Y-102870000D01*
X122720000Y-102870000D02*
X123295001Y-103445001D01*
X123295001Y-103445001D02*
X127392739Y-103445001D01*
X127392739Y-103445001D02*
X128407160Y-102430580D01*
X100625000Y-100457000D02*
X103759000Y-100457000D01*
X104099000Y-117729000D02*
X104099000Y-117029000D01*
X104099000Y-117029000D02*
X105111999Y-116016001D01*
X105111999Y-116016001D02*
X107032001Y-116016001D01*
X107032001Y-116016001D02*
X107301999Y-115746003D01*
X107301999Y-115746003D02*
X107301999Y-101182001D01*
X107301999Y-101182001D02*
X108027000Y-100457000D01*
X108027000Y-100457000D02*
X108077000Y-100457000D01*
X101684000Y-117475000D02*
X103845000Y-117475000D01*
X103845000Y-117475000D02*
X104099000Y-117729000D01*
X108585000Y-107950000D02*
X108585000Y-107250000D01*
X109818999Y-102315001D02*
X110077000Y-102057000D01*
X108585000Y-107250000D02*
X109818999Y-106016001D01*
X109818999Y-106016001D02*
X109818999Y-102315001D01*
X110077000Y-102057000D02*
X110077000Y-101407000D01*
X104943000Y-95250000D02*
X105793000Y-95250000D01*
X110077000Y-100757000D02*
X110077000Y-101407000D01*
X105793000Y-95250000D02*
X110077000Y-99534000D01*
X110077000Y-99534000D02*
X110077000Y-100757000D01*
X94869000Y-97536000D02*
X93693999Y-96360999D01*
X93693999Y-96360999D02*
X93693999Y-93885999D01*
X93693999Y-93885999D02*
X95574008Y-92005990D01*
X95574008Y-92005990D02*
X101548990Y-92005990D01*
X101548990Y-92005990D02*
X104793000Y-95250000D01*
X104793000Y-95250000D02*
X104943000Y-95250000D01*
X119852440Y-107993180D02*
X121622820Y-107993180D01*
X121622820Y-107993180D02*
X121920000Y-107696000D01*
X104013000Y-107950000D02*
X104013000Y-106865420D01*
X104013000Y-106865420D02*
X104134920Y-106743500D01*
X104013000Y-107950000D02*
X103863000Y-107950000D01*
X103863000Y-107950000D02*
X101831000Y-109982000D01*
X101831000Y-109982000D02*
X101514000Y-109982000D01*
X94869000Y-100076000D02*
X98044000Y-100076000D01*
X98044000Y-100076000D02*
X98425000Y-100457000D01*
X97554000Y-92456000D02*
X100221000Y-95123000D01*
X100221000Y-95123000D02*
X100371000Y-95123000D01*
X96309000Y-92456000D02*
X97554000Y-92456000D01*
X94869000Y-94996000D02*
X94869000Y-93896000D01*
X94869000Y-93896000D02*
X96309000Y-92456000D01*
X130388000Y-112268000D02*
X130238000Y-112268000D01*
X130238000Y-112268000D02*
X129035001Y-113470999D01*
X129035001Y-113470999D02*
X124919999Y-113470999D01*
X124919999Y-113470999D02*
X124854999Y-113535999D01*
X124854999Y-114740999D02*
X125430000Y-115316000D01*
X125430000Y-115316000D02*
X125730000Y-115316000D01*
X124854999Y-113535999D02*
X124854999Y-114740999D01*
X123736100Y-107325160D02*
X124715838Y-107325160D01*
X124715838Y-107325160D02*
X124919999Y-107120999D01*
X124919999Y-107120999D02*
X131165001Y-107120999D01*
X131165001Y-107120999D02*
X131359001Y-107314999D01*
X131359001Y-107314999D02*
X131359001Y-110596999D01*
X131359001Y-110596999D02*
X130388000Y-111568000D01*
X130388000Y-111568000D02*
X130388000Y-112268000D01*
X108544000Y-105410000D02*
X108544000Y-104710000D01*
X108544000Y-104710000D02*
X108852001Y-104401999D01*
X108852001Y-104401999D02*
X108852001Y-99796999D01*
X108852001Y-99796999D02*
X107716222Y-98661220D01*
X107716222Y-98661220D02*
X107038140Y-98661220D01*
X128066800Y-110672880D02*
X127629920Y-110236000D01*
X127629920Y-110236000D02*
X125730000Y-110236000D01*
X110785000Y-107950000D02*
X114125870Y-107950000D01*
X114125870Y-107950000D02*
X115822590Y-109646720D01*
X115822590Y-109646720D02*
X119494300Y-109646720D01*
X110744000Y-105410000D02*
X110744000Y-107909000D01*
X110744000Y-107909000D02*
X110785000Y-107950000D01*
X99484000Y-117475000D02*
X99634000Y-117475000D01*
X99634000Y-117475000D02*
X100969001Y-118810001D01*
X100969001Y-118810001D02*
X123674001Y-118810001D01*
X123674001Y-118810001D02*
X123788999Y-118695003D01*
X123788999Y-118695003D02*
X123788999Y-109337001D01*
X123788999Y-109337001D02*
X125430000Y-107696000D01*
X125430000Y-107696000D02*
X125730000Y-107696000D01*
X94869000Y-110236000D02*
X92202000Y-107569000D01*
X92202000Y-107569000D02*
X92202000Y-94741588D01*
X95387608Y-91555980D02*
X119610982Y-91555980D01*
X92202000Y-94741588D02*
X95387608Y-91555980D01*
X119610982Y-91555980D02*
X124854999Y-96799997D01*
X124854999Y-96799997D02*
X124854999Y-100724999D01*
X124854999Y-100724999D02*
X125730000Y-101600000D01*
X124206000Y-102362000D02*
X125222000Y-102362000D01*
X125222000Y-102362000D02*
X125730000Y-102870000D01*
X120315970Y-91105970D02*
X122936000Y-93726000D01*
X122936000Y-93726000D02*
X122936000Y-93980000D01*
X94869000Y-112776000D02*
X91751990Y-109658990D01*
X91751990Y-109658990D02*
X91751991Y-94555187D01*
X95201208Y-91105970D02*
X120315970Y-91105970D01*
X91751991Y-94555187D02*
X95201208Y-91105970D01*
X125730000Y-100330000D02*
X130134000Y-100330000D01*
X130134000Y-100330000D02*
X130388000Y-100076000D01*
X125730000Y-104140000D02*
X129564000Y-104140000D01*
X129564000Y-104140000D02*
X130388000Y-103316000D01*
X130388000Y-103316000D02*
X130388000Y-102616000D01*
X116164000Y-104521000D02*
X116164000Y-105221000D01*
X116164000Y-105221000D02*
X117458061Y-106515061D01*
X118744939Y-106515061D02*
X121120000Y-104140000D01*
X117458061Y-106515061D02*
X118744939Y-106515061D01*
X121120000Y-104140000D02*
X121920000Y-104140000D01*
X125730000Y-99060000D02*
X129056000Y-99060000D01*
X129056000Y-99060000D02*
X130388000Y-97728000D01*
X130388000Y-97728000D02*
X130388000Y-97028000D01*
M02*
