M48
;DRILL file {KiCad 4.0.7} date Tuesday, October 17, 2017 'PMt' 02:20:41 PM
;FORMAT={-:-/ absolute / inch / decimal}
FMAT,2
INCH,TZ
T1C0.016
T2C0.030
T3C0.039
%
G90
G05
M72
T1
X4.75Y-4.275
X4.851Y-3.9575
X4.897Y-3.984
X4.933Y-4.408
X4.943Y-3.9815
X4.951Y-3.865
X5.Y-4.1
X5.Y-4.3
X5.Y-4.6
X5.Y-4.75
X5.075Y-4.1
X5.077Y-4.4195
X5.1Y-4.3
X5.1Y-4.55
X5.1355Y-3.5125
X5.15Y-4.275
X5.1675Y-3.4605
X5.175Y-4.356
X5.175Y-4.55
X5.1795Y-3.781
X5.225Y-4.375
X5.275Y-4.325
X5.348Y-3.6125
X5.348Y-3.711
X5.375Y-4.55
X5.4135Y-3.9095
X5.425Y-4.55
X5.428Y-3.741
X5.448Y-3.9415
X5.45Y-4.575
X5.4615Y-3.694
X5.548Y-3.796
X5.5965Y-3.6365
X5.6Y-4.1485
X5.6365Y-3.817
X5.6495Y-3.7
X5.65Y-4.075
X5.6565Y-3.861
X5.7245Y-3.853
X5.7305Y-4.005
X5.7565Y-4.1055
X5.7765Y-4.0005
X5.873Y-3.809
X5.909Y-3.6045
X5.95Y-4.
X5.95Y-4.375
X5.95Y-4.5
X5.962Y-4.064
X5.973Y-3.905
X5.975Y-4.35
X5.975Y-4.35
X6.Y-4.275
X6.041Y-3.885
X6.079Y-3.6905
X6.0985Y-3.918
X6.101Y-4.0815
X6.125Y-4.4
X6.125Y-4.475
X6.145Y-4.089
X6.1735Y-4.2095
X6.2695Y-4.06
X6.385Y-4.067
X6.425Y-4.3
X6.425Y-4.35
X6.4505Y-4.087
X6.59Y-4.0375
X6.61Y-4.0975
X6.85Y-4.375
X6.9Y-3.775
X6.9Y-4.35
X6.95Y-3.675
X6.959Y-4.1655
X7.031Y-4.25
X7.0555Y-4.409
X7.0625Y-4.005
X7.1695Y-3.9785
X7.175Y-3.75
X7.35Y-4.05
X7.425Y-4.15
X7.425Y-4.2
X7.45Y-4.25
X7.45Y-4.3
X7.55Y-4.3
T2
X4.25Y-3.9
X4.25Y-4.3
X5.9579Y-3.4579
X6.1618Y-3.4614
X7.75Y-3.9
X7.75Y-4.3
T3
X5.95Y-4.75
X6.05Y-4.75
X6.15Y-4.75
X6.25Y-4.75
T0
M30
