G04 #@! TF.FileFunction,Copper,L2,Bot,Signal*
%FSLAX46Y46*%
G04 Gerber Fmt 4.6, Leading zero omitted, Abs format (unit mm)*
G04 Created by KiCad (PCBNEW 4.0.7) date Tuesday, October 17, 2017 'PMt' 02:11:27 PM*
%MOMM*%
%LPD*%
G01*
G04 APERTURE LIST*
%ADD10C,0.100000*%
%ADD11R,1.700000X1.700000*%
%ADD12O,1.700000X1.700000*%
%ADD13C,1.524000*%
%ADD14C,0.600000*%
%ADD15C,0.250000*%
G04 APERTURE END LIST*
D10*
D11*
X158750000Y-120650000D03*
D12*
X156210000Y-120650000D03*
X153670000Y-120650000D03*
X151130000Y-120650000D03*
D13*
X107950000Y-109220000D03*
X107950000Y-99060000D03*
X196850000Y-109220000D03*
X196850000Y-99060000D03*
X156510000Y-87920000D03*
X151330000Y-87830000D03*
D14*
X143510000Y-103505000D03*
X142240000Y-105371900D03*
X137795000Y-115570000D03*
X136525000Y-115570000D03*
X131445000Y-115570000D03*
X129540000Y-115570000D03*
X127000000Y-116840000D03*
X127000000Y-120650000D03*
X137502900Y-99301300D03*
X138722100Y-93827600D03*
X163195000Y-109220000D03*
X163195000Y-110490000D03*
X129540000Y-109220000D03*
X131445000Y-110642400D03*
X128955800Y-112255300D03*
X125298200Y-111963200D03*
X127000000Y-104140000D03*
X128905000Y-104140000D03*
X130810000Y-108585000D03*
X120650000Y-108585000D03*
X154406600Y-93738700D03*
X156806900Y-106921300D03*
X154965400Y-103670100D03*
X149174200Y-96748600D03*
X167386000Y-102552500D03*
X167894000Y-104076500D03*
X143167100Y-96951800D03*
X146215100Y-104279700D03*
X142151100Y-92367100D03*
X143497300Y-93980000D03*
X140919200Y-96418400D03*
X137871200Y-95021400D03*
X152400000Y-108585000D03*
X151765000Y-110490000D03*
X151765000Y-110490000D03*
X138379200Y-100114100D03*
X124383800Y-101193600D03*
X179209700Y-111988600D03*
X175260000Y-110490000D03*
X186690000Y-102870000D03*
X173990000Y-111125000D03*
X176530000Y-93345000D03*
X189230000Y-107950000D03*
X175260000Y-95885000D03*
X188595000Y-105410000D03*
X178587400Y-107950000D03*
X176758600Y-105803700D03*
X182245000Y-95250000D03*
X188595000Y-106680000D03*
X155575000Y-111760000D03*
X155575000Y-113665000D03*
X151130000Y-111125000D03*
X151130000Y-114300000D03*
X189230000Y-109220000D03*
X191770000Y-109220000D03*
X135839200Y-94259400D03*
X135839200Y-91757500D03*
X153441400Y-98679000D03*
X150088600Y-91554300D03*
X131254500Y-87896700D03*
X130441700Y-89217500D03*
X133985000Y-109855000D03*
X132715000Y-111125000D03*
X145402300Y-97866200D03*
X151714200Y-99187000D03*
X154901900Y-99517200D03*
X143675100Y-98069400D03*
X125552200Y-101130100D03*
X125755400Y-98171000D03*
X123215400Y-100520500D03*
X131559300Y-96037400D03*
X151130000Y-101600000D03*
X151434800Y-103225600D03*
X159245300Y-103124000D03*
X163842700Y-103809800D03*
X138430000Y-116205000D03*
X127000000Y-109220000D03*
X182105300Y-101053900D03*
X145554700Y-101727000D03*
X179387500Y-101727000D03*
X162179000Y-103301800D03*
X156083000Y-103860600D03*
X146723100Y-101612700D03*
D15*
X142240000Y-105371900D02*
X142539999Y-105071901D01*
X142539999Y-105071901D02*
X142578099Y-105071901D01*
X142578099Y-105071901D02*
X142728058Y-104921942D01*
X142728058Y-104921942D02*
X142728058Y-104286942D01*
X142728058Y-104286942D02*
X143510000Y-103505000D01*
X136525000Y-115570000D02*
X137795000Y-115570000D01*
X129540000Y-115570000D02*
X131445000Y-115570000D01*
X127000000Y-120650000D02*
X127000000Y-116840000D01*
X137987598Y-93980000D02*
X137246199Y-94721399D01*
X137246199Y-94721399D02*
X137246199Y-99044599D01*
X137246199Y-99044599D02*
X137502900Y-99301300D01*
X138722100Y-93827600D02*
X138139998Y-93827600D01*
X138139998Y-93827600D02*
X137987598Y-93980000D01*
X163195000Y-110490000D02*
X163195000Y-109220000D01*
X131445000Y-110642400D02*
X130962400Y-110642400D01*
X130962400Y-110642400D02*
X129540000Y-109220000D01*
X125298200Y-111963200D02*
X125722464Y-111963200D01*
X125722464Y-111963200D02*
X125801222Y-111884442D01*
X125801222Y-111884442D02*
X128584942Y-111884442D01*
X128584942Y-111884442D02*
X128955800Y-112255300D01*
X128905000Y-104140000D02*
X127000000Y-104140000D01*
X120650000Y-108585000D02*
X130810000Y-108585000D01*
X153936700Y-96202500D02*
X153936700Y-94208600D01*
X153936700Y-94208600D02*
X154406600Y-93738700D01*
X155572300Y-97838100D02*
X153936700Y-96202500D01*
X156806900Y-97838100D02*
X155572300Y-97838100D01*
X156806900Y-106921300D02*
X156806900Y-97838100D01*
X149174200Y-96748600D02*
X149174200Y-97878900D01*
X149174200Y-97878900D02*
X154965400Y-103670100D01*
X143497300Y-93980000D02*
X143497300Y-93713300D01*
X143497300Y-93713300D02*
X142151100Y-92367100D01*
X140919200Y-96418400D02*
X139268200Y-96418400D01*
X139268200Y-96418400D02*
X137871200Y-95021400D01*
X167894000Y-104076500D02*
X167894000Y-103060500D01*
X167894000Y-103060500D02*
X167386000Y-102552500D01*
X146215100Y-104279700D02*
X143050099Y-101114699D01*
X143050099Y-101114699D02*
X143050099Y-97068801D01*
X143050099Y-97068801D02*
X143167100Y-96951800D01*
X151765000Y-109220000D02*
X152400000Y-108585000D01*
X151765000Y-110490000D02*
X151765000Y-109220000D01*
X138379200Y-100114100D02*
X127835500Y-100114100D01*
X127835500Y-100114100D02*
X127530700Y-100418900D01*
X126436036Y-102278264D02*
X127530700Y-101183600D01*
X127530700Y-101183600D02*
X127530700Y-100418900D01*
X125044200Y-102278264D02*
X126436036Y-102278264D01*
X124383800Y-101193600D02*
X124383800Y-101617864D01*
X124383800Y-101617864D02*
X125044200Y-102278264D01*
X179209700Y-111988600D02*
X176758600Y-111988600D01*
X176758600Y-111988600D02*
X175260000Y-110490000D01*
X186989889Y-113655000D02*
X186989889Y-103169889D01*
X186989889Y-103169889D02*
X186690000Y-102870000D01*
X173990000Y-111125000D02*
X173990000Y-112685002D01*
X173990000Y-112685002D02*
X174959998Y-113655000D01*
X174959998Y-113655000D02*
X186989889Y-113655000D01*
X186691410Y-90805000D02*
X179070000Y-90805000D01*
X179070000Y-90805000D02*
X176530000Y-93345000D01*
X193040000Y-106046410D02*
X193040000Y-97153590D01*
X193040000Y-97153590D02*
X186691410Y-90805000D01*
X191136410Y-107950000D02*
X193040000Y-106046410D01*
X189230000Y-107950000D02*
X191136410Y-107950000D01*
X191135000Y-97155000D02*
X189865000Y-95885000D01*
X189865000Y-95885000D02*
X175260000Y-95885000D01*
X191135000Y-104775000D02*
X191135000Y-97155000D01*
X190500000Y-105410000D02*
X191135000Y-104775000D01*
X188595000Y-105410000D02*
X190500000Y-105410000D01*
X176758600Y-105803700D02*
X178587400Y-107632500D01*
X178587400Y-107632500D02*
X178587400Y-107950000D01*
X192405000Y-97155000D02*
X190500000Y-95250000D01*
X190500000Y-95250000D02*
X182245000Y-95250000D01*
X192405000Y-106045000D02*
X192405000Y-97155000D01*
X191770000Y-106680000D02*
X192405000Y-106045000D01*
X188595000Y-106680000D02*
X191770000Y-106680000D01*
X155575000Y-113665000D02*
X155575000Y-111760000D01*
X151130000Y-114300000D02*
X151130000Y-111125000D01*
X191770000Y-109220000D02*
X189230000Y-109220000D01*
X135839200Y-93063400D02*
X135839200Y-94259400D01*
X135839200Y-91757500D02*
X135839200Y-93063400D01*
X150088600Y-91554300D02*
X153441400Y-94907100D01*
X153441400Y-94907100D02*
X153441400Y-98679000D01*
X130441700Y-89217500D02*
X130441700Y-88709500D01*
X130441700Y-88709500D02*
X131254500Y-87896700D01*
X132715000Y-111125000D02*
X133985000Y-109855000D01*
X154901900Y-99517200D02*
X154477636Y-99517200D01*
X154477636Y-99517200D02*
X154452236Y-99491800D01*
X154452236Y-99491800D02*
X152019000Y-99491800D01*
X152019000Y-99491800D02*
X151714200Y-99187000D01*
X145402300Y-97866200D02*
X143878300Y-97866200D01*
X143878300Y-97866200D02*
X143675100Y-98069400D01*
X125755400Y-98171000D02*
X125755400Y-100926900D01*
X125755400Y-100926900D02*
X125552200Y-101130100D01*
X131559300Y-96037400D02*
X126963998Y-96037400D01*
X126963998Y-96037400D02*
X123215400Y-99785998D01*
X123215400Y-99785998D02*
X123215400Y-100520500D01*
X159245300Y-103124000D02*
X161076198Y-103124000D01*
X161076198Y-103124000D02*
X161878999Y-103926801D01*
X161878999Y-103926801D02*
X163301435Y-103926801D01*
X163301435Y-103926801D02*
X163418436Y-103809800D01*
X163418436Y-103809800D02*
X163842700Y-103809800D01*
X151320500Y-102687036D02*
X151320500Y-101790500D01*
X151320500Y-101790500D02*
X151130000Y-101600000D01*
X151434800Y-103225600D02*
X151434800Y-102801336D01*
X151434800Y-102801336D02*
X151320500Y-102687036D01*
X134620000Y-116205000D02*
X138430000Y-116205000D01*
X134620000Y-111760000D02*
X134620000Y-116205000D01*
X129540000Y-111760000D02*
X134620000Y-111760000D01*
X127000000Y-109220000D02*
X129540000Y-111760000D01*
X173939200Y-103022400D02*
X180136800Y-103022400D01*
X180136800Y-103022400D02*
X182105300Y-101053900D01*
X171145200Y-105816400D02*
X173939200Y-103022400D01*
X171145200Y-115608100D02*
X171145200Y-105816400D01*
X167182800Y-115608100D02*
X171145200Y-115608100D01*
X159121001Y-107546301D02*
X167182800Y-115608100D01*
X147053300Y-104192898D02*
X150406703Y-107546301D01*
X150406703Y-107546301D02*
X159121001Y-107546301D01*
X145554700Y-101727000D02*
X145554700Y-102694298D01*
X145554700Y-102694298D02*
X147053300Y-104192898D01*
X178425000Y-101727000D02*
X179387500Y-101727000D01*
X162179000Y-103301800D02*
X163753800Y-101727000D01*
X163753800Y-101727000D02*
X178425000Y-101727000D01*
X146723100Y-101612700D02*
X149405501Y-104295101D01*
X155648499Y-104295101D02*
X156083000Y-103860600D01*
X149405501Y-104295101D02*
X155648499Y-104295101D01*
M02*
