G04 #@! TF.FileFunction,Copper,L1,Top,Signal*
%FSLAX46Y46*%
G04 Gerber Fmt 4.6, Leading zero omitted, Abs format (unit mm)*
G04 Created by KiCad (PCBNEW 4.0.7) date Tuesday, October 17, 2017 'PMt' 02:11:27 PM*
%MOMM*%
%LPD*%
G01*
G04 APERTURE LIST*
%ADD10C,0.100000*%
%ADD11C,0.300000*%
%ADD12C,0.200000*%
%ADD13R,1.700000X1.700000*%
%ADD14O,1.700000X1.700000*%
%ADD15R,0.750000X1.200000*%
%ADD16R,1.200000X0.750000*%
%ADD17C,1.524000*%
%ADD18R,0.900000X0.800000*%
%ADD19R,1.200000X0.900000*%
%ADD20R,0.900000X1.200000*%
%ADD21R,0.500000X1.100000*%
%ADD22R,0.750000X1.300000*%
%ADD23R,1.100000X0.500000*%
%ADD24C,0.600000*%
%ADD25C,0.250000*%
G04 APERTURE END LIST*
D10*
D11*
X145534286Y-119892071D02*
X146034286Y-121392071D01*
X146534286Y-119892071D01*
X147677143Y-121320643D02*
X147534286Y-121392071D01*
X147248572Y-121392071D01*
X147105714Y-121320643D01*
X147034286Y-121249214D01*
X146962857Y-121106357D01*
X146962857Y-120677786D01*
X147034286Y-120534929D01*
X147105714Y-120463500D01*
X147248572Y-120392071D01*
X147534286Y-120392071D01*
X147677143Y-120463500D01*
X148962857Y-121320643D02*
X148820000Y-121392071D01*
X148534286Y-121392071D01*
X148391428Y-121320643D01*
X148320000Y-121249214D01*
X148248571Y-121106357D01*
X148248571Y-120677786D01*
X148320000Y-120534929D01*
X148391428Y-120463500D01*
X148534286Y-120392071D01*
X148820000Y-120392071D01*
X148962857Y-120463500D01*
D12*
X150657086Y-116851181D02*
X151228515Y-116851181D01*
X150942800Y-117851181D02*
X150942800Y-116851181D01*
X151561848Y-117851181D02*
X151561848Y-117184514D01*
X151561848Y-117374990D02*
X151609467Y-117279752D01*
X151657086Y-117232133D01*
X151752324Y-117184514D01*
X151847563Y-117184514D01*
X152180896Y-117851181D02*
X152180896Y-117184514D01*
X152180896Y-116851181D02*
X152133277Y-116898800D01*
X152180896Y-116946419D01*
X152228515Y-116898800D01*
X152180896Y-116851181D01*
X152180896Y-116946419D01*
X153085658Y-117184514D02*
X153085658Y-117994038D01*
X153038039Y-118089276D01*
X152990420Y-118136895D01*
X152895181Y-118184514D01*
X152752324Y-118184514D01*
X152657086Y-118136895D01*
X153085658Y-117803562D02*
X152990420Y-117851181D01*
X152799943Y-117851181D01*
X152704705Y-117803562D01*
X152657086Y-117755943D01*
X152609467Y-117660705D01*
X152609467Y-117374990D01*
X152657086Y-117279752D01*
X152704705Y-117232133D01*
X152799943Y-117184514D01*
X152990420Y-117184514D01*
X153085658Y-117232133D01*
X156199081Y-117428971D02*
X156532415Y-117428971D01*
X156675272Y-117952781D02*
X156199081Y-117952781D01*
X156199081Y-116952781D01*
X156675272Y-116952781D01*
X157532415Y-117905162D02*
X157437177Y-117952781D01*
X157246700Y-117952781D01*
X157151462Y-117905162D01*
X157103843Y-117857543D01*
X157056224Y-117762305D01*
X157056224Y-117476590D01*
X157103843Y-117381352D01*
X157151462Y-117333733D01*
X157246700Y-117286114D01*
X157437177Y-117286114D01*
X157532415Y-117333733D01*
X157960986Y-117952781D02*
X157960986Y-116952781D01*
X158389558Y-117952781D02*
X158389558Y-117428971D01*
X158341939Y-117333733D01*
X158246701Y-117286114D01*
X158103843Y-117286114D01*
X158008605Y-117333733D01*
X157960986Y-117381352D01*
X159008605Y-117952781D02*
X158913367Y-117905162D01*
X158865748Y-117857543D01*
X158818129Y-117762305D01*
X158818129Y-117476590D01*
X158865748Y-117381352D01*
X158913367Y-117333733D01*
X159008605Y-117286114D01*
X159151463Y-117286114D01*
X159246701Y-117333733D01*
X159294320Y-117381352D01*
X159341939Y-117476590D01*
X159341939Y-117762305D01*
X159294320Y-117857543D01*
X159246701Y-117905162D01*
X159151463Y-117952781D01*
X159008605Y-117952781D01*
D11*
X161975943Y-120115900D02*
X161833086Y-120044471D01*
X161618800Y-120044471D01*
X161404515Y-120115900D01*
X161261657Y-120258757D01*
X161190229Y-120401614D01*
X161118800Y-120687329D01*
X161118800Y-120901614D01*
X161190229Y-121187329D01*
X161261657Y-121330186D01*
X161404515Y-121473043D01*
X161618800Y-121544471D01*
X161761657Y-121544471D01*
X161975943Y-121473043D01*
X162047372Y-121401614D01*
X162047372Y-120901614D01*
X161761657Y-120901614D01*
X162690229Y-121544471D02*
X162690229Y-120044471D01*
X163547372Y-121544471D01*
X163547372Y-120044471D01*
X164261658Y-121544471D02*
X164261658Y-120044471D01*
X164618801Y-120044471D01*
X164833086Y-120115900D01*
X164975944Y-120258757D01*
X165047372Y-120401614D01*
X165118801Y-120687329D01*
X165118801Y-120901614D01*
X165047372Y-121187329D01*
X164975944Y-121330186D01*
X164833086Y-121473043D01*
X164618801Y-121544471D01*
X164261658Y-121544471D01*
D13*
X158750000Y-120650000D03*
D14*
X156210000Y-120650000D03*
X153670000Y-120650000D03*
X151130000Y-120650000D03*
D15*
X137160000Y-113980000D03*
X137160000Y-112080000D03*
D16*
X141290000Y-111760000D03*
X143190000Y-111760000D03*
X141290000Y-114300000D03*
X143190000Y-114300000D03*
D15*
X125730000Y-119060000D03*
X125730000Y-117160000D03*
X123190000Y-119060000D03*
X123190000Y-117160000D03*
D16*
X155260000Y-95250000D03*
X157160000Y-95250000D03*
X121600000Y-113030000D03*
X119700000Y-113030000D03*
X147640000Y-95250000D03*
X149540000Y-95250000D03*
D15*
X165100000Y-96840000D03*
X165100000Y-98740000D03*
X139700000Y-100650000D03*
X139700000Y-102550000D03*
X125730000Y-90490000D03*
X125730000Y-92390000D03*
X135890000Y-100650000D03*
X135890000Y-102550000D03*
X175260000Y-108900000D03*
X175260000Y-107000000D03*
X175260000Y-101280000D03*
X175260000Y-99380000D03*
X170180000Y-113980000D03*
X170180000Y-112080000D03*
X180340000Y-93030000D03*
X180340000Y-94930000D03*
X184150000Y-93030000D03*
X184150000Y-94930000D03*
D17*
X107950000Y-109220000D03*
X107950000Y-99060000D03*
X196850000Y-109220000D03*
X196850000Y-99060000D03*
D18*
X138700000Y-90490000D03*
X138700000Y-92390000D03*
X140700000Y-91440000D03*
X169180000Y-103190000D03*
X169180000Y-105090000D03*
X171180000Y-104140000D03*
D19*
X136990000Y-118110000D03*
X134790000Y-118110000D03*
X142410000Y-95250000D03*
X144610000Y-95250000D03*
D20*
X142240000Y-108120000D03*
X142240000Y-110320000D03*
D19*
X134790000Y-107950000D03*
X136990000Y-107950000D03*
D20*
X149225000Y-113030000D03*
X149225000Y-110830000D03*
X153670000Y-112860000D03*
X153670000Y-110660000D03*
D19*
X160020000Y-111760000D03*
X157820000Y-111760000D03*
D20*
X130810000Y-119210000D03*
X130810000Y-117010000D03*
X128270000Y-119210000D03*
X128270000Y-117010000D03*
D19*
X119550000Y-110490000D03*
X121750000Y-110490000D03*
D20*
X123190000Y-90340000D03*
X123190000Y-92540000D03*
X142240000Y-100500000D03*
X142240000Y-102700000D03*
D19*
X145880000Y-92710000D03*
X143680000Y-92710000D03*
X139870000Y-97790000D03*
X142070000Y-97790000D03*
X124290000Y-97790000D03*
X122090000Y-97790000D03*
D20*
X128270000Y-90340000D03*
X128270000Y-92540000D03*
X135890000Y-97620000D03*
X135890000Y-95420000D03*
X134620000Y-90340000D03*
X134620000Y-92540000D03*
D19*
X130640000Y-97790000D03*
X128440000Y-97790000D03*
X145880000Y-88900000D03*
X143680000Y-88900000D03*
D20*
X165100000Y-107780000D03*
X165100000Y-105580000D03*
D21*
X123190000Y-106680000D03*
X124460000Y-106680000D03*
X125730000Y-106680000D03*
X127000000Y-106680000D03*
X128270000Y-106680000D03*
X129540000Y-106680000D03*
X130810000Y-106680000D03*
X130810000Y-102870000D03*
X129540000Y-102870000D03*
X128270000Y-102870000D03*
X127000000Y-102870000D03*
X125730000Y-102870000D03*
X124460000Y-102870000D03*
X123190000Y-102870000D03*
D22*
X148590000Y-105410000D03*
X149860000Y-105410000D03*
X151130000Y-105410000D03*
X152400000Y-105410000D03*
X153670000Y-105410000D03*
X154940000Y-105410000D03*
X156210000Y-105410000D03*
X156210000Y-101600000D03*
X154940000Y-101600000D03*
X153670000Y-101600000D03*
X152400000Y-101600000D03*
X151130000Y-101600000D03*
X149860000Y-101600000D03*
X148590000Y-101600000D03*
D23*
X184150000Y-107950000D03*
X184150000Y-106680000D03*
X184150000Y-105410000D03*
X184150000Y-104140000D03*
X184150000Y-102870000D03*
X184150000Y-101600000D03*
X184150000Y-100330000D03*
X184150000Y-99060000D03*
X180340000Y-99060000D03*
X180340000Y-100330000D03*
X180340000Y-101600000D03*
X180340000Y-102870000D03*
X180340000Y-104140000D03*
X180340000Y-105410000D03*
X180340000Y-106680000D03*
X180340000Y-107950000D03*
D17*
X156510000Y-87920000D03*
X151330000Y-87830000D03*
D24*
X143510000Y-103505000D03*
X142240000Y-105371900D03*
X137795000Y-115570000D03*
X136525000Y-115570000D03*
X131445000Y-115570000D03*
X129540000Y-115570000D03*
X127000000Y-116840000D03*
X127000000Y-120650000D03*
X137502900Y-99301300D03*
X138722100Y-93827600D03*
X163195000Y-109220000D03*
X163195000Y-110490000D03*
X129540000Y-109220000D03*
X131445000Y-110642400D03*
X128955800Y-112255300D03*
X125298200Y-111963200D03*
X127000000Y-104140000D03*
X128905000Y-104140000D03*
X130810000Y-108585000D03*
X120650000Y-108585000D03*
X154406600Y-93738700D03*
X156806900Y-106921300D03*
X154965400Y-103670100D03*
X149174200Y-96748600D03*
X167386000Y-102552500D03*
X167894000Y-104076500D03*
X143167100Y-96951800D03*
X146215100Y-104279700D03*
X142151100Y-92367100D03*
X143497300Y-93980000D03*
X140919200Y-96418400D03*
X137871200Y-95021400D03*
X152400000Y-108585000D03*
X151765000Y-110490000D03*
X151765000Y-110490000D03*
X138379200Y-100114100D03*
X124383800Y-101193600D03*
X179209700Y-111988600D03*
X175260000Y-110490000D03*
X186690000Y-102870000D03*
X173990000Y-111125000D03*
X176530000Y-93345000D03*
X189230000Y-107950000D03*
X175260000Y-95885000D03*
X188595000Y-105410000D03*
X178587400Y-107950000D03*
X176758600Y-105803700D03*
X182245000Y-95250000D03*
X188595000Y-106680000D03*
X155575000Y-111760000D03*
X155575000Y-113665000D03*
X151130000Y-111125000D03*
X151130000Y-114300000D03*
X189230000Y-109220000D03*
X191770000Y-109220000D03*
X135839200Y-94259400D03*
X135839200Y-91757500D03*
X153441400Y-98679000D03*
X150088600Y-91554300D03*
X131254500Y-87896700D03*
X130441700Y-89217500D03*
X133985000Y-109855000D03*
X132715000Y-111125000D03*
X145402300Y-97866200D03*
X151714200Y-99187000D03*
X154901900Y-99517200D03*
X143675100Y-98069400D03*
X125552200Y-101130100D03*
X125755400Y-98171000D03*
X123215400Y-100520500D03*
X131559300Y-96037400D03*
X151130000Y-101600000D03*
X151434800Y-103225600D03*
X159245300Y-103124000D03*
X163842700Y-103809800D03*
X138430000Y-116205000D03*
X127000000Y-109220000D03*
X182105300Y-101053900D03*
X145554700Y-101727000D03*
X179387500Y-101727000D03*
X162179000Y-103301800D03*
X156083000Y-103860600D03*
X146723100Y-101612700D03*
D25*
X137160000Y-113980000D02*
X137160000Y-117940000D01*
X137160000Y-117940000D02*
X136990000Y-118110000D01*
X124460000Y-109220000D02*
X125085001Y-109845001D01*
X125085001Y-109845001D02*
X131259997Y-109845001D01*
X131259997Y-109845001D02*
X133929999Y-107174999D01*
X133929999Y-107174999D02*
X136064999Y-107174999D01*
X136064999Y-107174999D02*
X136840000Y-107950000D01*
X136840000Y-107950000D02*
X136990000Y-107950000D01*
X124460000Y-109220000D02*
X124460000Y-106680000D01*
X137160000Y-112080000D02*
X137160000Y-110490000D01*
X137160000Y-110490000D02*
X137160000Y-108120000D01*
X137160000Y-108120000D02*
X136990000Y-107950000D01*
X144610000Y-95250000D02*
X144610000Y-93830000D01*
X144610000Y-93830000D02*
X145730000Y-92710000D01*
X145730000Y-92710000D02*
X145880000Y-92710000D01*
X143510000Y-103505000D02*
X144610000Y-102405000D01*
X144610000Y-102405000D02*
X144610000Y-95250000D01*
X142240000Y-108120000D02*
X142240000Y-105410000D01*
X141290000Y-111760000D02*
X141290000Y-108370000D01*
X141290000Y-108370000D02*
X141540000Y-108120000D01*
X141540000Y-108120000D02*
X142240000Y-108120000D01*
X141290000Y-114300000D02*
X141290000Y-113675000D01*
X141290000Y-113675000D02*
X141290000Y-111760000D01*
X137795000Y-115570000D02*
X140645000Y-115570000D01*
X140645000Y-115570000D02*
X141290000Y-114925000D01*
X141290000Y-114925000D02*
X141290000Y-114300000D01*
X133985000Y-115570000D02*
X136525000Y-115570000D01*
X131445000Y-115570000D02*
X133985000Y-115570000D01*
X128270000Y-117010000D02*
X128270000Y-116840000D01*
X128270000Y-116840000D02*
X129540000Y-115570000D01*
X127000000Y-116840000D02*
X128100000Y-116840000D01*
X128100000Y-116840000D02*
X128270000Y-117010000D01*
X118624999Y-117354999D02*
X121920000Y-120650000D01*
X121920000Y-120650000D02*
X127000000Y-120650000D01*
X122555000Y-104775000D02*
X118624999Y-108705001D01*
X118624999Y-108705001D02*
X118624999Y-117354999D01*
X127335000Y-104775000D02*
X122555000Y-104775000D01*
X128270000Y-104775000D02*
X128270000Y-102870000D01*
X128270000Y-106680000D02*
X128270000Y-104775000D01*
X128270000Y-104775000D02*
X127335000Y-104775000D01*
X127335000Y-104775000D02*
X125730000Y-106380000D01*
X125730000Y-106380000D02*
X125730000Y-106680000D01*
X137502900Y-99301300D02*
X137502900Y-100977900D01*
X137502900Y-100977900D02*
X139075000Y-102550000D01*
X139075000Y-102550000D02*
X139700000Y-102550000D01*
X138700000Y-92390000D02*
X138700000Y-93805500D01*
X138700000Y-93805500D02*
X138722100Y-93827600D01*
X138700000Y-92390000D02*
X138750000Y-92390000D01*
X139075000Y-102550000D02*
X138700000Y-102175000D01*
X138700000Y-93040000D02*
X138700000Y-92390000D01*
X143510000Y-104820000D02*
X145754999Y-102575001D01*
X145754999Y-102575001D02*
X151699999Y-102575001D01*
X151699999Y-102575001D02*
X152400000Y-101875000D01*
X152400000Y-101875000D02*
X152400000Y-101600000D01*
X142240000Y-102700000D02*
X139850000Y-102700000D01*
X139850000Y-102700000D02*
X139700000Y-102550000D01*
X135890000Y-102550000D02*
X136515000Y-102550000D01*
X136515000Y-102550000D02*
X139700000Y-102550000D01*
X177800000Y-97155000D02*
X181300000Y-97155000D01*
X181300000Y-97155000D02*
X183525000Y-94930000D01*
X183525000Y-94930000D02*
X184150000Y-94930000D01*
X177800000Y-106680000D02*
X177800000Y-97155000D01*
X143510000Y-108900000D02*
X143510000Y-104820000D01*
X143510000Y-104820000D02*
X142240000Y-103550000D01*
X142240000Y-103550000D02*
X142240000Y-102700000D01*
X142240000Y-110320000D02*
X142240000Y-110170000D01*
X142240000Y-110170000D02*
X143510000Y-108900000D01*
X143190000Y-111760000D02*
X143190000Y-111270000D01*
X143190000Y-111270000D02*
X142240000Y-110320000D01*
X143190000Y-114300000D02*
X143190000Y-113675000D01*
X143190000Y-113675000D02*
X143190000Y-111760000D01*
X134620000Y-92540000D02*
X138550000Y-92540000D01*
X138550000Y-92540000D02*
X138700000Y-92390000D01*
X132715000Y-92710000D02*
X132885000Y-92540000D01*
X132885000Y-92540000D02*
X134620000Y-92540000D01*
X132715000Y-90485000D02*
X132715000Y-92710000D01*
X130175000Y-86995000D02*
X130175000Y-87945000D01*
X130175000Y-87945000D02*
X132715000Y-90485000D01*
X115570000Y-86995000D02*
X130175000Y-86995000D01*
X107950000Y-94615000D02*
X115570000Y-86995000D01*
X107950000Y-99060000D02*
X107950000Y-94615000D01*
X151660000Y-97685000D02*
X152400000Y-98425000D01*
X152400000Y-98425000D02*
X152400000Y-101600000D01*
X151660000Y-96520000D02*
X151660000Y-97685000D01*
X157160000Y-95250000D02*
X156935000Y-95250000D01*
X156935000Y-95250000D02*
X155665000Y-96520000D01*
X150390000Y-95250000D02*
X149540000Y-95250000D01*
X155665000Y-96520000D02*
X151660000Y-96520000D01*
X151660000Y-96520000D02*
X150390000Y-95250000D01*
X163195000Y-98425000D02*
X160020000Y-95250000D01*
X160020000Y-95250000D02*
X157160000Y-95250000D01*
X163195000Y-100020000D02*
X163195000Y-98425000D01*
X163195000Y-109220000D02*
X163195000Y-100020000D01*
X163195000Y-100020000D02*
X164475000Y-98740000D01*
X164475000Y-98740000D02*
X165100000Y-98740000D01*
X164465000Y-113835000D02*
X166220000Y-112080000D01*
X164465000Y-113835000D02*
X164465000Y-111760000D01*
X158750000Y-119550000D02*
X164465000Y-113835000D01*
X164465000Y-111760000D02*
X163195000Y-110490000D01*
X177800000Y-106680000D02*
X180340000Y-106680000D01*
X177800000Y-109220000D02*
X177800000Y-106680000D01*
X174940000Y-112080000D02*
X177800000Y-109220000D01*
X170180000Y-112080000D02*
X174940000Y-112080000D01*
X158750000Y-120650000D02*
X158750000Y-119550000D01*
X166220000Y-112080000D02*
X169555000Y-112080000D01*
X169555000Y-112080000D02*
X170180000Y-112080000D01*
X128270000Y-119210000D02*
X130810000Y-119210000D01*
X125730000Y-119060000D02*
X128120000Y-119060000D01*
X128120000Y-119060000D02*
X128270000Y-119210000D01*
X123190000Y-119060000D02*
X125730000Y-119060000D01*
X131038600Y-111099600D02*
X131038600Y-111048800D01*
X131038600Y-111048800D02*
X131445000Y-110642400D01*
X129392764Y-112268000D02*
X129870200Y-112268000D01*
X129870200Y-112268000D02*
X131038600Y-111099600D01*
X128955800Y-112255300D02*
X129380064Y-112255300D01*
X129380064Y-112255300D02*
X129392764Y-112268000D01*
X129540000Y-109220000D02*
X129540000Y-106680000D01*
X123825000Y-110490000D02*
X125219442Y-111884442D01*
X121750000Y-110490000D02*
X123825000Y-110490000D01*
X121600000Y-113030000D02*
X121600000Y-110640000D01*
X121600000Y-110640000D02*
X121750000Y-110490000D01*
X125730000Y-117160000D02*
X125105000Y-117160000D01*
X125105000Y-117160000D02*
X121600000Y-113655000D01*
X121600000Y-113655000D02*
X121600000Y-113030000D01*
X119380000Y-100445002D02*
X119380000Y-97200000D01*
X119380000Y-97200000D02*
X123190000Y-93390000D01*
X123190000Y-93390000D02*
X123190000Y-92540000D01*
X127000000Y-104140000D02*
X123074998Y-104140000D01*
X123074998Y-104140000D02*
X119380000Y-100445002D01*
X130810000Y-106680000D02*
X130810000Y-106380000D01*
X130810000Y-106380000D02*
X128905000Y-104475000D01*
X128905000Y-104475000D02*
X128905000Y-104140000D01*
X130810000Y-108585000D02*
X130810000Y-106680000D01*
X119550000Y-110490000D02*
X119550000Y-109685000D01*
X119550000Y-109685000D02*
X120650000Y-108585000D01*
X119700000Y-113030000D02*
X119700000Y-110640000D01*
X119700000Y-110640000D02*
X119550000Y-110490000D01*
X123190000Y-117160000D02*
X122565000Y-117160000D01*
X122565000Y-117160000D02*
X119700000Y-114295000D01*
X119700000Y-114295000D02*
X119700000Y-113655000D01*
X119700000Y-113655000D02*
X119700000Y-113030000D01*
X154406600Y-93738700D02*
X154406600Y-94396600D01*
X154406600Y-94396600D02*
X155260000Y-95250000D01*
X153670000Y-105410000D02*
X153670000Y-105685000D01*
X153670000Y-105685000D02*
X154906300Y-106921300D01*
X154906300Y-106921300D02*
X156806900Y-106921300D01*
X156510000Y-87920000D02*
X156510000Y-94225000D01*
X156510000Y-94225000D02*
X155485000Y-95250000D01*
X155485000Y-95250000D02*
X155260000Y-95250000D01*
X154965400Y-103670100D02*
X154965400Y-105384600D01*
X154965400Y-105384600D02*
X154940000Y-105410000D01*
X147640000Y-95250000D02*
X147675600Y-95250000D01*
X147675600Y-95250000D02*
X149174200Y-96748600D01*
X151330000Y-87830000D02*
X151330000Y-91785000D01*
X151330000Y-91785000D02*
X147865000Y-95250000D01*
X147865000Y-95250000D02*
X147640000Y-95250000D01*
X142410000Y-95250000D02*
X142410000Y-95067300D01*
X142410000Y-95067300D02*
X143497300Y-93980000D01*
X140919200Y-96418400D02*
X141241600Y-96418400D01*
X141241600Y-96418400D02*
X142410000Y-95250000D01*
X167386000Y-102552500D02*
X165800001Y-100966501D01*
X165800001Y-100966501D02*
X165800001Y-97765001D01*
X165800001Y-97765001D02*
X165100000Y-97065000D01*
X165100000Y-97065000D02*
X165100000Y-96840000D01*
X169180000Y-105090000D02*
X168907500Y-105090000D01*
X168907500Y-105090000D02*
X167894000Y-104076500D01*
X143167100Y-96951800D02*
X143167100Y-96007100D01*
X143167100Y-96007100D02*
X142410000Y-95250000D01*
X152400000Y-105410000D02*
X152400000Y-105135000D01*
X152400000Y-105135000D02*
X151544700Y-104279700D01*
X151544700Y-104279700D02*
X146215100Y-104279700D01*
X142151100Y-92367100D02*
X145618200Y-88900000D01*
X145618200Y-88900000D02*
X145880000Y-88900000D01*
X142346158Y-95313842D02*
X142410000Y-95250000D01*
X135890000Y-100650000D02*
X135890000Y-99800000D01*
X135890000Y-99800000D02*
X137871200Y-97818800D01*
X137871200Y-97818800D02*
X137871200Y-97273802D01*
X137871200Y-97273802D02*
X137871200Y-95021400D01*
X167005000Y-109855000D02*
X169180000Y-107680000D01*
X169180000Y-107680000D02*
X169180000Y-105090000D01*
X162775000Y-109855000D02*
X167005000Y-109855000D01*
X160020000Y-111760000D02*
X160870000Y-111760000D01*
X160870000Y-111760000D02*
X162775000Y-109855000D01*
X169180000Y-105740000D02*
X169180000Y-105090000D01*
X152400000Y-108585000D02*
X152400000Y-105410000D01*
X152865000Y-112860000D02*
X151765000Y-111760000D01*
X151765000Y-111760000D02*
X151765000Y-110490000D01*
X153670000Y-112860000D02*
X152865000Y-112860000D01*
X153670000Y-112860000D02*
X158770000Y-112860000D01*
X158770000Y-112860000D02*
X159870000Y-111760000D01*
X159870000Y-111760000D02*
X160020000Y-111760000D01*
X149225000Y-113030000D02*
X153500000Y-113030000D01*
X153500000Y-113030000D02*
X153670000Y-112860000D01*
X151130000Y-118745000D02*
X149225000Y-116840000D01*
X149225000Y-116840000D02*
X149225000Y-113030000D01*
X151130000Y-120650000D02*
X151130000Y-118745000D01*
X138321210Y-95803290D02*
X141132399Y-92992101D01*
X141132399Y-92992101D02*
X142547899Y-92992101D01*
X142547899Y-92992101D02*
X142830000Y-92710000D01*
X142830000Y-92710000D02*
X143680000Y-92710000D01*
X138434801Y-100118901D02*
X138321210Y-100005310D01*
X138321210Y-100005310D02*
X138321210Y-95803290D01*
X124460000Y-102870000D02*
X124460000Y-101269800D01*
X124460000Y-101269800D02*
X124383800Y-101193600D01*
X139325000Y-100418900D02*
X139468900Y-100418900D01*
X139468900Y-100418900D02*
X139700000Y-100650000D01*
X139870000Y-97790000D02*
X139870000Y-95670000D01*
X139870000Y-95670000D02*
X142830000Y-92710000D01*
X139700000Y-100650000D02*
X139700000Y-97960000D01*
X139700000Y-97960000D02*
X139870000Y-97790000D01*
X142240000Y-100500000D02*
X139850000Y-100500000D01*
X139850000Y-100500000D02*
X139700000Y-100650000D01*
X123190000Y-90340000D02*
X125580000Y-90340000D01*
X125580000Y-90340000D02*
X125730000Y-90490000D01*
X122090000Y-97790000D02*
X122090000Y-95405000D01*
X122090000Y-95405000D02*
X125105000Y-92390000D01*
X125105000Y-92390000D02*
X125730000Y-92390000D01*
X127888900Y-100418900D02*
X124868900Y-100418900D01*
X124868900Y-100418900D02*
X122240000Y-97790000D01*
X122240000Y-97790000D02*
X122090000Y-97790000D01*
X129540000Y-102870000D02*
X129540000Y-102070000D01*
X129540000Y-102070000D02*
X127888900Y-100418900D01*
X179209700Y-111988600D02*
X179509699Y-111688601D01*
X179509699Y-111688601D02*
X189301399Y-111688601D01*
X189301399Y-111688601D02*
X189855001Y-111134999D01*
X189855001Y-105400001D02*
X188595000Y-104140000D01*
X188595000Y-104140000D02*
X184150000Y-104140000D01*
X189855001Y-111134999D02*
X189855001Y-105400001D01*
X175260000Y-108900000D02*
X175260000Y-110490000D01*
X186690000Y-102870000D02*
X184150000Y-102870000D01*
X175260000Y-107000000D02*
X175260000Y-107225000D01*
X175260000Y-107225000D02*
X173990000Y-108495000D01*
X173990000Y-108495000D02*
X173990000Y-108609998D01*
X173990000Y-108609998D02*
X173990000Y-111125000D01*
X176530000Y-93345000D02*
X176530000Y-100010000D01*
X176530000Y-100010000D02*
X175260000Y-101280000D01*
X184150000Y-107950000D02*
X189230000Y-107950000D01*
X175260000Y-95885000D02*
X175260000Y-99380000D01*
X184150000Y-105410000D02*
X188595000Y-105410000D01*
X190500000Y-103505000D02*
X188595000Y-101600000D01*
X188595000Y-101600000D02*
X184150000Y-101600000D01*
X190500000Y-114300000D02*
X190500000Y-103505000D01*
X189865000Y-114935000D02*
X190500000Y-114300000D01*
X171760000Y-114935000D02*
X189865000Y-114935000D01*
X170180000Y-113980000D02*
X170805000Y-113980000D01*
X170805000Y-113980000D02*
X171760000Y-114935000D01*
X178587400Y-107950000D02*
X180340000Y-107950000D01*
X171180000Y-104140000D02*
X175094900Y-104140000D01*
X175094900Y-104140000D02*
X176758600Y-105803700D01*
X172720000Y-92710000D02*
X171180000Y-94250000D01*
X171180000Y-94250000D02*
X171180000Y-104140000D01*
X179395000Y-92710000D02*
X172720000Y-92710000D01*
X180340000Y-93030000D02*
X179715000Y-93030000D01*
X179715000Y-93030000D02*
X179395000Y-92710000D01*
X184150000Y-93030000D02*
X180340000Y-93030000D01*
X182245000Y-95250000D02*
X180660000Y-95250000D01*
X180660000Y-95250000D02*
X180340000Y-94930000D01*
X184150000Y-106680000D02*
X188595000Y-106680000D01*
X153670000Y-110660000D02*
X152970000Y-110660000D01*
X152970000Y-110660000D02*
X149860000Y-107550000D01*
X149860000Y-107550000D02*
X149860000Y-106310000D01*
X149860000Y-106310000D02*
X149860000Y-105410000D01*
X155575000Y-110490000D02*
X155405000Y-110660000D01*
X155405000Y-110660000D02*
X153670000Y-110660000D01*
X155575000Y-111760000D02*
X155575000Y-110490000D01*
X155575000Y-116840000D02*
X155575000Y-113665000D01*
X155575000Y-118110000D02*
X155575000Y-116840000D01*
X156210000Y-118745000D02*
X155575000Y-118110000D01*
X156210000Y-120650000D02*
X156210000Y-118745000D01*
X149225000Y-110830000D02*
X149225000Y-109980000D01*
X149225000Y-109980000D02*
X148590000Y-109345000D01*
X148590000Y-106310000D02*
X148590000Y-105410000D01*
X148590000Y-109345000D02*
X148590000Y-106310000D01*
X151130000Y-111125000D02*
X149520000Y-111125000D01*
X149520000Y-111125000D02*
X149225000Y-110830000D01*
X153670000Y-116840000D02*
X151130000Y-114300000D01*
X153670000Y-120650000D02*
X153670000Y-116840000D01*
X149225000Y-110980000D02*
X149225000Y-110830000D01*
X133350000Y-118110000D02*
X134790000Y-118110000D01*
X133350000Y-121920000D02*
X133350000Y-118110000D01*
X113030000Y-121920000D02*
X133350000Y-121920000D01*
X113030000Y-118110000D02*
X113030000Y-121920000D01*
X107950000Y-113030000D02*
X113030000Y-118110000D01*
X107950000Y-109220000D02*
X107950000Y-113030000D01*
X189230000Y-109220000D02*
X181610000Y-109220000D01*
X180640000Y-105410000D02*
X180340000Y-105410000D01*
X181610000Y-109220000D02*
X181610000Y-106380000D01*
X181610000Y-106380000D02*
X180640000Y-105410000D01*
X196850000Y-109220000D02*
X191770000Y-109220000D01*
X194945000Y-99060000D02*
X193675000Y-100330000D01*
X193675000Y-100330000D02*
X184150000Y-100330000D01*
X196850000Y-99060000D02*
X194945000Y-99060000D01*
X135839200Y-94259400D02*
X135839200Y-95369200D01*
X135839200Y-95369200D02*
X135890000Y-95420000D01*
X135737600Y-95267600D02*
X135890000Y-95420000D01*
X134620000Y-90340000D02*
X134620000Y-90538300D01*
X134620000Y-90538300D02*
X135839200Y-91757500D01*
X138700000Y-90490000D02*
X134770000Y-90490000D01*
X134770000Y-90490000D02*
X134620000Y-90340000D01*
X153441400Y-98679000D02*
X153441400Y-101371400D01*
X153441400Y-101371400D02*
X153670000Y-101600000D01*
X143680000Y-88900000D02*
X143830000Y-88900000D01*
X143830000Y-88900000D02*
X144605001Y-88124999D01*
X144605001Y-88124999D02*
X146659299Y-88124999D01*
X146659299Y-88124999D02*
X150088600Y-91554300D01*
X140700000Y-91440000D02*
X140750000Y-91440000D01*
X140750000Y-91440000D02*
X143290000Y-88900000D01*
X143290000Y-88900000D02*
X143680000Y-88900000D01*
X131254500Y-87896700D02*
X131554499Y-87596701D01*
X131554499Y-87596701D02*
X137506701Y-87596701D01*
X137506701Y-87596701D02*
X140700000Y-90790000D01*
X140700000Y-90790000D02*
X140700000Y-91440000D01*
X130640000Y-97790000D02*
X130640000Y-89415800D01*
X130640000Y-89415800D02*
X130441700Y-89217500D01*
X165100000Y-105580000D02*
X165100000Y-105430000D01*
X165100000Y-105430000D02*
X167340000Y-103190000D01*
X167340000Y-103190000D02*
X168480000Y-103190000D01*
X168480000Y-103190000D02*
X169180000Y-103190000D01*
X127000000Y-111125000D02*
X125728590Y-111125000D01*
X125728590Y-111125000D02*
X123190000Y-108586410D01*
X123190000Y-108586410D02*
X123190000Y-107480000D01*
X123190000Y-107480000D02*
X123190000Y-106680000D01*
X128270000Y-112395000D02*
X127000000Y-111125000D01*
X128270000Y-113030000D02*
X128270000Y-112395000D01*
X130810000Y-113030000D02*
X128270000Y-113030000D01*
X133985000Y-109855000D02*
X133985000Y-108755000D01*
X133985000Y-108755000D02*
X134790000Y-107950000D01*
X130810000Y-117010000D02*
X130810000Y-113030000D01*
X130810000Y-113030000D02*
X132715000Y-111125000D01*
X157820000Y-111760000D02*
X157820000Y-106395000D01*
X157820000Y-106395000D02*
X156835000Y-105410000D01*
X156835000Y-105410000D02*
X156210000Y-105410000D01*
X154901900Y-99517200D02*
X154901900Y-101561900D01*
X154901900Y-101561900D02*
X154940000Y-101600000D01*
X151714200Y-99187000D02*
X150393400Y-97866200D01*
X150393400Y-97866200D02*
X145402300Y-97866200D01*
X142070000Y-97790000D02*
X143395700Y-97790000D01*
X143395700Y-97790000D02*
X143675100Y-98069400D01*
X124290000Y-97790000D02*
X124290000Y-97090000D01*
X124290000Y-97090000D02*
X127494999Y-93885001D01*
X127494999Y-93885001D02*
X127494999Y-91265001D01*
X127494999Y-91265001D02*
X128270000Y-90490000D01*
X128270000Y-90490000D02*
X128270000Y-90340000D01*
X125247400Y-99491800D02*
X124290000Y-98534400D01*
X124290000Y-98534400D02*
X124290000Y-97790000D01*
X127731800Y-99491800D02*
X125247400Y-99491800D01*
X130810000Y-102870000D02*
X130810000Y-102570000D01*
X130810000Y-102570000D02*
X127731800Y-99491800D01*
X125552200Y-101130100D02*
X125552200Y-102692200D01*
X125552200Y-102692200D02*
X125730000Y-102870000D01*
X128440000Y-97790000D02*
X126136400Y-97790000D01*
X126136400Y-97790000D02*
X125755400Y-98171000D01*
X128270000Y-92540000D02*
X128270000Y-97620000D01*
X128270000Y-97620000D02*
X128440000Y-97790000D01*
X123215400Y-100520500D02*
X123215400Y-102844600D01*
X123215400Y-102844600D02*
X123190000Y-102870000D01*
X135890000Y-97620000D02*
X133141900Y-97620000D01*
X133141900Y-97620000D02*
X131559300Y-96037400D01*
X156705299Y-103045099D02*
X156784200Y-103124000D01*
X156784200Y-103124000D02*
X159245300Y-103124000D01*
X163842700Y-103809800D02*
X163842700Y-107222700D01*
X163842700Y-107222700D02*
X164400000Y-107780000D01*
X164400000Y-107780000D02*
X165100000Y-107780000D01*
X152208279Y-103045099D02*
X151615301Y-103045099D01*
X151615301Y-103045099D02*
X151434800Y-103225600D01*
X156705299Y-103045099D02*
X152208279Y-103045099D01*
X152208279Y-103045099D02*
X152161032Y-102997852D01*
X146685000Y-116205000D02*
X150260499Y-119780499D01*
X138430000Y-116205000D02*
X146685000Y-116205000D01*
X127000000Y-106680000D02*
X127000000Y-109220000D01*
X182105300Y-101053900D02*
X181063900Y-101053900D01*
X181063900Y-101053900D02*
X180340000Y-100330000D01*
X149860000Y-99707700D02*
X147574000Y-99707700D01*
X147574000Y-99707700D02*
X145554700Y-101727000D01*
X149860000Y-101600000D02*
X149860000Y-99707700D01*
X149860000Y-101600000D02*
X149860000Y-101325000D01*
X179387500Y-101727000D02*
X180213000Y-101727000D01*
X180213000Y-101727000D02*
X180340000Y-101600000D01*
X156083000Y-103860600D02*
X156619101Y-104396701D01*
X156619101Y-104396701D02*
X161084099Y-104396701D01*
X161084099Y-104396701D02*
X162179000Y-103301800D01*
X148590000Y-101600000D02*
X146735800Y-101600000D01*
X146735800Y-101600000D02*
X146723100Y-101612700D01*
M02*
