G04 #@! TF.FileFunction,Soldermask,Top*
%FSLAX46Y46*%
G04 Gerber Fmt 4.6, Leading zero omitted, Abs format (unit mm)*
G04 Created by KiCad (PCBNEW 4.0.7) date Tuesday, October 17, 2017 'PMt' 03:20:21 PM*
%MOMM*%
%LPD*%
G01*
G04 APERTURE LIST*
%ADD10C,0.100000*%
%ADD11R,2.100000X2.100000*%
%ADD12O,2.100000X2.100000*%
%ADD13C,3.400000*%
%ADD14R,1.150000X1.600000*%
%ADD15R,1.600000X1.150000*%
%ADD16C,1.924000*%
%ADD17R,1.300000X1.200000*%
%ADD18R,1.600000X1.300000*%
%ADD19R,1.300000X1.600000*%
%ADD20R,0.900000X1.500000*%
%ADD21R,1.150000X1.700000*%
%ADD22R,1.500000X0.900000*%
G04 APERTURE END LIST*
D10*
D11*
X158750000Y-120650000D03*
D12*
X156210000Y-120650000D03*
X153670000Y-120650000D03*
X151130000Y-120650000D03*
D13*
X107950000Y-87630000D03*
D14*
X137160000Y-113980000D03*
X137160000Y-112080000D03*
D15*
X141290000Y-111760000D03*
X143190000Y-111760000D03*
X141290000Y-114300000D03*
X143190000Y-114300000D03*
D14*
X125730000Y-119060000D03*
X125730000Y-117160000D03*
X123190000Y-119060000D03*
X123190000Y-117160000D03*
D15*
X155260000Y-95250000D03*
X157160000Y-95250000D03*
X121600000Y-113030000D03*
X119700000Y-113030000D03*
X147640000Y-95250000D03*
X149540000Y-95250000D03*
D14*
X165100000Y-96840000D03*
X165100000Y-98740000D03*
X139700000Y-100650000D03*
X139700000Y-102550000D03*
X125730000Y-90490000D03*
X125730000Y-92390000D03*
X135890000Y-100650000D03*
X135890000Y-102550000D03*
X175260000Y-108900000D03*
X175260000Y-107000000D03*
X175260000Y-101280000D03*
X175260000Y-99380000D03*
X170180000Y-113980000D03*
X170180000Y-112080000D03*
X180340000Y-93030000D03*
X180340000Y-94930000D03*
X184150000Y-93030000D03*
X184150000Y-94930000D03*
D16*
X107950000Y-109220000D03*
X107950000Y-99060000D03*
X196850000Y-109220000D03*
X196850000Y-99060000D03*
D17*
X138700000Y-90490000D03*
X138700000Y-92390000D03*
X140700000Y-91440000D03*
X169180000Y-103190000D03*
X169180000Y-105090000D03*
X171180000Y-104140000D03*
D18*
X136990000Y-118110000D03*
X134790000Y-118110000D03*
X142410000Y-95250000D03*
X144610000Y-95250000D03*
D19*
X142240000Y-108120000D03*
X142240000Y-110320000D03*
D18*
X134790000Y-107950000D03*
X136990000Y-107950000D03*
D19*
X149225000Y-113030000D03*
X149225000Y-110830000D03*
X153670000Y-112860000D03*
X153670000Y-110660000D03*
D18*
X160020000Y-111760000D03*
X157820000Y-111760000D03*
D19*
X130810000Y-119210000D03*
X130810000Y-117010000D03*
X128270000Y-119210000D03*
X128270000Y-117010000D03*
D18*
X119550000Y-110490000D03*
X121750000Y-110490000D03*
D19*
X123190000Y-90340000D03*
X123190000Y-92540000D03*
X142240000Y-100500000D03*
X142240000Y-102700000D03*
D18*
X145880000Y-92710000D03*
X143680000Y-92710000D03*
X139870000Y-97790000D03*
X142070000Y-97790000D03*
X124290000Y-97790000D03*
X122090000Y-97790000D03*
D19*
X128270000Y-90340000D03*
X128270000Y-92540000D03*
X135890000Y-97620000D03*
X135890000Y-95420000D03*
X134620000Y-90340000D03*
X134620000Y-92540000D03*
D18*
X130640000Y-97790000D03*
X128440000Y-97790000D03*
X145880000Y-88900000D03*
X143680000Y-88900000D03*
D19*
X165100000Y-107780000D03*
X165100000Y-105580000D03*
D20*
X123190000Y-106680000D03*
X124460000Y-106680000D03*
X125730000Y-106680000D03*
X127000000Y-106680000D03*
X128270000Y-106680000D03*
X129540000Y-106680000D03*
X130810000Y-106680000D03*
X130810000Y-102870000D03*
X129540000Y-102870000D03*
X128270000Y-102870000D03*
X127000000Y-102870000D03*
X125730000Y-102870000D03*
X124460000Y-102870000D03*
X123190000Y-102870000D03*
D21*
X148590000Y-105410000D03*
X149860000Y-105410000D03*
X151130000Y-105410000D03*
X152400000Y-105410000D03*
X153670000Y-105410000D03*
X154940000Y-105410000D03*
X156210000Y-105410000D03*
X156210000Y-101600000D03*
X154940000Y-101600000D03*
X153670000Y-101600000D03*
X152400000Y-101600000D03*
X151130000Y-101600000D03*
X149860000Y-101600000D03*
X148590000Y-101600000D03*
D22*
X184150000Y-107950000D03*
X184150000Y-106680000D03*
X184150000Y-105410000D03*
X184150000Y-104140000D03*
X184150000Y-102870000D03*
X184150000Y-101600000D03*
X184150000Y-100330000D03*
X184150000Y-99060000D03*
X180340000Y-99060000D03*
X180340000Y-100330000D03*
X180340000Y-101600000D03*
X180340000Y-102870000D03*
X180340000Y-104140000D03*
X180340000Y-105410000D03*
X180340000Y-106680000D03*
X180340000Y-107950000D03*
D16*
X156510000Y-87920000D03*
X151330000Y-87830000D03*
D13*
X196850000Y-87630000D03*
X196850000Y-119380000D03*
X107950000Y-119380000D03*
M02*
